<svg xmlns="http://www.w3.org/2000/svg" xmlns:xlink="http://www.w3.org/1999/xlink" width="1em" height="1em" preserveAspectRatio="xMidYMid meet" viewBox="0 0 1024 1024" style="-ms-transform: rotate(360deg); -webkit-transform: rotate(360deg); transform: rotate(360deg);"><path fill="currentColor" d="M224 128v704h576V128H224zm-32-64h640a32 32 0 0 1 32 32v768a32 32 0 0 1-32 32H192a32 32 0 0 1-32-32V96a32 32 0 0 1 32-32z"/><path fill="currentColor" d="M64 832h896v64H64zm256-640h128v96H320z"/><path fill="currentColor" d="M384 832h256v-64a128 128 0 1 0-256 0v64zm128-256a192 192 0 0 1 192 192v128H320V768a192 192 0 0 1 192-192zM320 384h128v96H320zm256-192h128v96H576zm0 192h128v96H576z"/></svg>