<svg xmlns="http://www.w3.org/2000/svg" xmlns:xlink="http://www.w3.org/1999/xlink" width="1em" height="1em" preserveAspectRatio="xMidYMid meet" viewBox="0 0 32 32" style="-ms-transform: rotate(360deg); -webkit-transform: rotate(360deg); transform: rotate(360deg);"><path fill="currentColor" d="m29.707 19.293l-3-3a1 1 0 0 0-1.414 0L16 25.586V30h4.414l9.293-9.293a1 1 0 0 0 0-1.414zM19.586 28H18v-1.586l5-5L24.586 23zM26 21.586L24.414 20L26 18.414L27.586 20zM30 4h-7v2h3.586L19 13.586l-4.293-4.293a1 1 0 0 0-1.414 0L6 16.586L7.414 18L14 11.414l4.293 4.293a1 1 0 0 0 1.414 0L28 7.414V11h2z"/><path fill="currentColor" d="M4 2H2v26a2 2 0 0 0 2 2h8v-2H4Z"/></svg>