<svg xmlns="http://www.w3.org/2000/svg" xmlns:xlink="http://www.w3.org/1999/xlink" width="1em" height="1em" preserveAspectRatio="xMidYMid meet" viewBox="0 0 64 64" style="-ms-transform: rotate(360deg); -webkit-transform: rotate(360deg); transform: rotate(360deg);"><path fill="currentColor" d="M14.188 29.656H8.563c-.775 0-1.406.631-1.406 1.406v3.75c0 .775.631 1.406 1.406 1.406h5.625c.775 0 1.406-.631 1.406-1.406v-3.75c0-.775-.631-1.406-1.406-1.406m-3.282 5.625H8.563a.47.47 0 0 1-.469-.469v-3.75a.47.47 0 0 1 .469-.469h2.344v4.688zm3.75-.468a.47.47 0 0 1-.469.469h-2.344v-4.688h2.344a.47.47 0 0 1 .469.469v3.75m-.468 4.687H8.563c-.775 0-1.406.631-1.406 1.406v3.75c0 .775.631 1.406 1.406 1.406h5.625c.775 0 1.406-.631 1.406-1.406v-3.75c0-.775-.631-1.406-1.406-1.406m-3.282 5.625H8.563a.47.47 0 0 1-.469-.469v-3.75a.47.47 0 0 1 .469-.469h2.344v4.688zm3.75-.469a.47.47 0 0 1-.469.469h-2.344v-4.688h2.344a.47.47 0 0 1 .469.469v3.75m-.468 4.219H8.563c-.775 0-1.406.631-1.406 1.406v3.75c0 .775.631 1.406 1.406 1.406h5.625c.775 0 1.406-.631 1.406-1.406v-3.75c0-.775-.631-1.406-1.406-1.406M10.906 54.5H8.563a.47.47 0 0 1-.469-.469v-3.75a.47.47 0 0 1 .469-.469h2.344V54.5zm3.75-.469a.47.47 0 0 1-.469.469h-2.344v-4.688h2.344a.47.47 0 0 1 .469.469v3.75m33.75-22.968v3.75c0 .775.631 1.406 1.406 1.406h5.625c.775 0 1.406-.631 1.406-1.406v-3.75c0-.775-.631-1.406-1.406-1.406h-5.625a1.407 1.407 0 0 0-1.406 1.406m4.688-.469h2.344a.47.47 0 0 1 .469.469v3.75a.47.47 0 0 1-.469.469h-2.344v-4.688m-.938 4.687h-2.344a.47.47 0 0 1-.469-.469v-3.75a.47.47 0 0 1 .469-.469h2.344v4.688m3.282 4.219h-5.625c-.775 0-1.406.631-1.406 1.406v3.75c0 .775.631 1.406 1.406 1.406h5.625c.775 0 1.406-.631 1.406-1.406v-3.75c0-.775-.631-1.406-1.406-1.406m-3.282 5.625h-2.344a.47.47 0 0 1-.469-.469v-3.75a.47.47 0 0 1 .469-.469h2.344v4.688m3.75-.469a.47.47 0 0 1-.469.469h-2.344v-4.688h2.344a.47.47 0 0 1 .469.469v3.75m-.468 4.219h-5.625c-.775 0-1.406.631-1.406 1.406v3.75c0 .775.631 1.406 1.406 1.406h5.625c.775 0 1.406-.631 1.406-1.406v-3.75c0-.775-.631-1.406-1.406-1.406M52.156 54.5h-2.344a.47.47 0 0 1-.469-.469v-3.75a.47.47 0 0 1 .469-.469h2.344V54.5m3.75-.469a.47.47 0 0 1-.469.469h-2.344v-4.688h2.344a.47.47 0 0 1 .469.469v3.75M22.499 36.348c-.527-.178-.76-.28-.76-.512c0-.188.194-.35.597-.35c.399 0 .691.102.854.172l.207-.663a2.778 2.778 0 0 0-1.044-.183c-.967 0-1.549.475-1.549 1.094c0 .527.443.862 1.124 1.072c.491.155.686.286.686.512c0 .237-.225.393-.65.393c-.394 0-.776-.112-1.025-.226l-.188.679c.23.113.692.221 1.16.221c1.123 0 1.651-.517 1.651-1.126c0-.512-.34-.846-1.063-1.083m3.777-.856c.327 0 .589.063.776.134l.188-.651c-.163-.076-.527-.162-1.007-.162c-1.239 0-2.236.689-2.236 1.929c0 1.035.729 1.815 2.145 1.815c.498 0 .881-.08 1.051-.156l-.141-.641a2.59 2.59 0 0 1-.771.119c-.825 0-1.311-.459-1.311-1.186c.001-.808.572-1.201 1.306-1.201m3.978.776h-1.525v-1.396h-.928v3.631h.928v-1.52h1.525v1.52h.923v-3.631h-.923zm3.534-1.455c-1.208 0-1.991.813-1.991 1.901c0 1.035.71 1.849 1.924 1.849c1.197 0 2.01-.723 2.01-1.912c-.001-1.004-.686-1.838-1.943-1.838m-.017 3.098c-.62 0-.996-.502-.996-1.213c0-.706.364-1.234.989-1.234c.638 0 .99.561.99 1.213c0 .706-.359 1.234-.983 1.234m4.373-3.098c-1.209 0-1.992.813-1.992 1.901c0 1.035.71 1.849 1.924 1.849c1.198 0 2.011-.723 2.011-1.912c-.001-1.004-.688-1.838-1.943-1.838m-.019 3.098c-.62 0-.996-.502-.996-1.213c0-.706.364-1.234.989-1.234c.639 0 .99.561.99 1.213c0 .706-.358 1.234-.983 1.234m3.497-3.039h-.929v3.631h2.557v-.69h-1.628zm-3.059-8.497a6.563 6.563 0 1 0-13.126 0a6.563 6.563 0 1 0 13.126 0m-11.25 0a4.689 4.689 0 1 1 9.378.002a4.689 4.689 0 0 1-9.378-.002"/><path fill="currentColor" d="M32.938 27.313v-3.75c0-.516-.422-.938-.938-.938s-.938.422-.938.938v2.813h-.938c-.516 0-.938.422-.938.938s.422.938.938.938H32a.943.943 0 0 0 .938-.939"/><path fill="currentColor" d="M61.063 58.25h-.938v-30h.634c1.055 0 1.53-.755 1.059-1.677l-3.077-6.021c-.472-.922-1.721-1.677-2.775-1.677H40.107l-7.17-5.804v-2.29c3.75 2.992 7.5-6.446 11.25-3.453c-3.75-5.294-7.5 1.841-11.25-3.453v-.937C32.938 2.422 32.516 2 32 2s-.938.422-.938.938v10.134l-7.17 5.804H8.035c-1.055 0-2.304.755-2.775 1.677l-3.077 6.021c-.472.922.004 1.677 1.059 1.677h.634v30h-.938a.94.94 0 0 0-.938.937v1.875a.94.94 0 0 0 .938.937h58.125a.94.94 0 0 0 .937-.937v-1.875a.94.94 0 0 0-.937-.938M17 58.25H5.75v-30h8.937c.018.163.05.318.1.459c.245.685.957 1.416 2.214 1.416V58.25zm25 2.594H22v-1.5h20v1.5M26.375 58.25V47h5.156v11.25h-5.156m6.094 0V47h5.156v11.25h-5.156m12.656 0H39.5V47h1.875v-1.881s-6.443-3.893-8.487-5.348a1.586 1.586 0 0 0-1.775 0c-2.044 1.455-8.487 5.348-8.487 5.348V47H24.5v11.25h-5.625v-30H17c-.516 0-.611-.269-.214-.596l14.49-11.934c.199-.163.462-.245.724-.245s.524.082.724.245l14.49 11.934c.397.327.302.596-.214.596h-1.875v30m13.125 0H47V30.125c1.257 0 1.969-.731 2.214-1.416c.05-.141.082-.296.1-.459h8.937v30z"/><path fill="currentColor" d="M29.246 52.156h1.348v.681h-1.348zm4.16 0h1.348v.681h-1.348z"/></svg>