<svg xmlns="http://www.w3.org/2000/svg" xmlns:xlink="http://www.w3.org/1999/xlink" width="1em" height="1em" preserveAspectRatio="xMidYMid meet" viewBox="0 0 24 24" style="-ms-transform: rotate(360deg); -webkit-transform: rotate(360deg); transform: rotate(360deg);"><path fill="currentColor" d="M15.601 5.53c-1.91.035-3.981.91-5.63 2.56c-2.93 2.93-2.083 8.53-1.088 9.525c.805.804 6.595 1.843 9.526-1.088a9.74 9.74 0 0 0 .584-.643c.043-.292.205-.66.489-1.106a1.848 1.848 0 0 1-.537.176c-.144.265-.37.55-.676.855c-.354.335-.607.554-.76.656a.795.795 0 0 1-.437.152c-.35 0-.514-.308-.494-.924c-.22.316-.425.549-.612.7a.914.914 0 0 1-.578.224c-.194 0-.36-.09-.496-.273a1.03 1.03 0 0 1-.193-.507a4.016 4.016 0 0 1-.726.583c-.224.132-.47.197-.74.197c-.3 0-.543-.096-.727-.288a.978.978 0 0 1-.257-.524v.004c-.3.276-.564.48-.79.611a1.295 1.295 0 0 1-.649.197a.693.693 0 0 1-.571-.275c-.145-.183-.218-.43-.218-.739c0-.464.101-1.02.302-1.67c.201-.65.445-1.25.733-1.797l.842-.312a.21.21 0 0 1 .06-.013c.063 0 .116.047.157.14c.04.095.061.221.061.38c0 .451-.104.888-.312 1.31c-.207.422-.532.873-.974 1.352c-.018.23-.027.388-.027.474c0 .193.036.345.106.458c.071.113.165.169.282.169a.71.71 0 0 0 .382-.13c.132-.084.333-.26.602-.523c.028-.418.187-.798.482-1.142c.324-.38.685-.569 1.08-.569c.206 0 .37.054.494.16a.524.524 0 0 1 .186.417c0 .458-.486.829-1.459 1.114c.088.43.32.646.693.646a.807.807 0 0 0 .417-.117c.129-.076.321-.243.575-.497c.032-.252.118-.495.259-.728c.182-.3.416-.544.701-.73c.285-.185.537-.278.756-.278c.276 0 .47.127.58.381l.677-.374h.186l-.292.971c-.15.488-.226.823-.226 1.004c0 .19.067.285.202.285c.086 0 .181-.045.285-.137c.104-.092.25-.232.437-.42v.001c.143-.155.274-.32.392-.494c-.19-.084-.285-.21-.285-.375c0-.17.058-.352.174-.545c.116-.194.275-.29.479-.29c.172 0 .258.088.258.265c0 .139-.05.338-.149.596c.367-.04.687-.32.961-.842l.228-.01c1.059-2.438.828-5.075-.83-6.732c-1.019-1.02-2.408-1.5-3.895-1.471zm4.725 8.203a8.938 8.938 0 0 1-1.333 2.151a1.09 1.09 0 0 0-.012.147c0 .168.047.309.14.423c.092.113.206.17.34.17c.296 0 .714-.264 1.254-.787c-.001.04-.003.08-.003.121c0 .146.012.368.036.666l.733-.172c0-.2.003-.357.01-.474c.01-.157.033-.33.066-.517c.02-.11.07-.216.152-.315l.186-.216a5.276 5.276 0 0 1 .378-.397c.062-.055.116-.099.162-.13a.26.26 0 0 1 .123-.046c.055 0 .083.035.083.106c0 .07-.052.236-.156.497c-.194.486-.292.848-.292 1.084c0 .175.046.314.136.418a.45.45 0 0 0 .358.155c.365 0 .803-.269 1.313-.808v-.381c-.361.426-.623.64-.784.64c-.109 0-.163-.067-.163-.2c0-.1.065-.316.195-.65c.19-.486.285-.836.285-1.048a.464.464 0 0 0-.112-.319a.36.36 0 0 0-.282-.127c-.165 0-.354.077-.567.233c-.213.156-.5.436-.863.84c.053-.262.165-.622.335-1.08l-.809.156a6.54 6.54 0 0 0-.399 1.074c-.04.156-.07.316-.092.48a7.447 7.447 0 0 1-.49.45a.38.38 0 0 1-.229.08a.208.208 0 0 1-.174-.082a.352.352 0 0 1-.064-.222c0-.1.019-.214.056-.343c.038-.13.12-.373.249-.731l.308-.849zm-17.21-2.927c-.863-.016-1.67.263-2.261.854c-1.352 1.352-1.07 3.827.631 5.527c1.7 1.701 4.95 1.21 5.527.632c.467-.466 1.07-3.827-.631-5.527c-.957-.957-2.158-1.465-3.267-1.486zm12.285.358h.166v.21H15.4zm.427 0h.166v.865l.46-.455h.195l-.364.362l.428.684h-.198l-.357-.575l-.164.166v.41h-.166zm1.016 0h.166v.21h-.166zm.481.122h.166v.288h.172v.135h-.172v.717c0 .037.006.062.02.075c.012.013.037.02.074.02a.23.23 0 0 0 .078-.01v.141a.802.802 0 0 1-.136.014a.23.23 0 0 1-.15-.043a.15.15 0 0 1-.052-.123v-.79h-.141v-.136h.141zm-3.562.258c.081 0 .15.012.207.038c.057.024.1.061.13.11s.045.106.045.173h-.176c-.006-.111-.075-.167-.208-.167a.285.285 0 0 0-.164.041a.134.134 0 0 0-.06.117c0 .035.015.065.045.088c.03.024.08.044.15.06l.16.039a.47.47 0 0 1 .224.105c.047.046.07.108.07.186a.3.3 0 0 1-.052.175a.327.327 0 0 1-.152.116a.585.585 0 0 1-.226.041c-.136 0-.24-.03-.309-.088c-.069-.059-.105-.149-.109-.269h.176c.004.037.01.065.017.084a.166.166 0 0 0 .034.054c.044.043.112.065.204.065a.31.31 0 0 0 .177-.045a.139.139 0 0 0 .067-.119a.116.116 0 0 0-.038-.09a.287.287 0 0 0-.124-.055l-.156-.038a1.248 1.248 0 0 1-.159-.05a.359.359 0 0 1-.098-.061a.22.22 0 0 1-.058-.083a.32.32 0 0 1-.016-.108c0-.096.036-.174.109-.232a.45.45 0 0 1 .29-.087zm1.035 0a.46.46 0 0 1 .202.043a.351.351 0 0 1 .187.212a.577.577 0 0 1 .023.126h-.168a.256.256 0 0 0-.078-.168a.242.242 0 0 0-.17-.06a.248.248 0 0 0-.155.05a.306.306 0 0 0-.1.144a.662.662 0 0 0-.034.224a.58.58 0 0 0 .035.214a.299.299 0 0 0 .101.135a.261.261 0 0 0 .157.048c.142 0 .227-.084.256-.252h.167a.519.519 0 0 1-.065.22a.35.35 0 0 1-.146.138a.464.464 0 0 1-.216.048a.448.448 0 0 1-.246-.066a.441.441 0 0 1-.161-.192a.703.703 0 0 1-.057-.293c0-.085.01-.163.032-.233a.522.522 0 0 1 .095-.182a.403.403 0 0 1 .15-.117a.453.453 0 0 1 .191-.04zm.603.03h.166v1.046H15.4zm1.443 0h.166v1.046h-.166zm-5.05.618c-.08 0-.2.204-.356.611c-.155.407-.308.977-.459 1.71c.281-.312.509-.662.683-1.05c.175-.387.262-.72.262-.999a.455.455 0 0 0-.036-.197c-.025-.05-.056-.075-.093-.075zm4.662 1.797c-.221 0-.431.188-.629.563c-.197.376-.296.722-.296 1.038c0 .12.029.216.088.29a.273.273 0 0 0 .223.111c.221 0 .43-.188.625-.565c.196-.377.294-.725.294-1.043a.457.457 0 0 0-.083-.29a.269.269 0 0 0-.222-.104zm-2.848.007c-.146 0-.285.11-.417.333c-.133.222-.2.51-.2.866c.566-.159.849-.452.849-.881c0-.212-.077-.318-.232-.318Z"/></svg>