<?xml version="1.0" encoding="iso-8859-1"?>
<!-- Generator: Adobe Illustrator 19.0.0, SVG Export Plug-In . SVG Version: 6.00 Build 0)  -->
<svg version="1.1" id="Layer_1" xmlns="http://www.w3.org/2000/svg" xmlns:xlink="http://www.w3.org/1999/xlink" x="0px" y="0px"
	 viewBox="0 0 505 505" style="enable-background:new 0 0 505 505;" xml:space="preserve">
<circle style="fill:#84DBFF;" cx="252.5" cy="252.5" r="252.5"/>
<path style="fill:#324A5E;" d="M342.2,369.3h-80v-79.9h-19.3v79.9h-80c-1,0-1.8,0.8-1.8,1.8v15.2c0,1,0.8,1.8,1.8,1.8h80h19.3h80
	c1,0,1.8-0.8,1.8-1.8v-15.2C344,370.1,343.2,369.3,342.2,369.3z"/>
<circle style="fill:#FF7058;" cx="252.5" cy="378.3" r="20.9"/>
<path style="fill:#FFFFFF;" d="M379.2,190.8h-3.1c0.1-1.5,0.2-2.9,0.2-4.4c0-39-31.7-70.7-70.7-70.7c-15.3,0-29.5,4.9-41.1,13.2
	c-14.5-29.3-44.7-49.6-79.6-49.6c-49.1,0-88.9,39.8-88.9,88.9c0,9.9,1.7,19.4,4.7,28.2c-20,9.5-33.8,29.7-33.8,53.3l0,0
	c0,32.6,26.4,59,59,59h253.3c32.6,0,59-26.4,59-59l0,0C438.2,217.2,411.8,190.8,379.2,190.8z"/>
<g>
</g>
<g>
</g>
<g>
</g>
<g>
</g>
<g>
</g>
<g>
</g>
<g>
</g>
<g>
</g>
<g>
</g>
<g>
</g>
<g>
</g>
<g>
</g>
<g>
</g>
<g>
</g>
<g>
</g>
</svg>
