<?xml version="1.0" encoding="UTF-8" standalone="no"?>
<svg
   data-name="Layer 1"
   width="1013.94928"
   height="503"
   viewBox="0 0 1013.94928 503"
   version="1.1"
   id="svg2252"
   sodipodi:docname="404.svg"
   inkscape:version="1.2.1 (9c6d41e410, 2022-07-14)"
   xmlns:inkscape="http://www.inkscape.org/namespaces/inkscape"
   xmlns:sodipodi="http://sodipodi.sourceforge.net/DTD/sodipodi-0.dtd"
   xmlns="http://www.w3.org/2000/svg"
   xmlns:svg="http://www.w3.org/2000/svg"
   xmlns:rdf="http://www.w3.org/1999/02/22-rdf-syntax-ns#"
   xmlns:cc="http://creativecommons.org/ns#"
   xmlns:dc="http://purl.org/dc/elements/1.1/">
  <defs
     id="defs2256" />
  <sodipodi:namedview
     id="namedview2254"
     pagecolor="#ffffff"
     bordercolor="#000000"
     borderopacity="0.25"
     inkscape:showpageshadow="2"
     inkscape:pageopacity="0.0"
     inkscape:pagecheckerboard="0"
     inkscape:deskcolor="#d1d1d1"
     showgrid="false"
     showguides="false"
     inkscape:zoom="1.0290982"
     inkscape:cx="502.86748"
     inkscape:cy="340.10361"
     inkscape:window-width="2048"
     inkscape:window-height="1211"
     inkscape:window-x="0"
     inkscape:window-y="0"
     inkscape:window-maximized="1"
     inkscape:current-layer="svg2252" />
  <title
     id="title2136">moonlight</title>
  <path
     d="M600,198.5c-278.673,0-504.824,224.83411-506.97467,503H1106.97464C1104.824,423.33411,878.67307,198.5,600,198.5Z"
     fill="#2f2e41"
     id="path2138"
     transform="translate(-93.02536 -198.5)" />
  <circle
     cx="480.78756"
     cy="52.54395"
     r="5"
     fill="#f2f2f2"
     id="circle2140" />
  <circle
     cx="323.78756"
     cy="217.54395"
     r="2"
     fill="#f2f2f2"
     id="circle2142" />
  <circle
     cx="618.78756"
     cy="311.54395"
     r="2"
     fill="#f2f2f2"
     id="circle2144" />
  <circle
     cx="97.78756"
     cy="286.54395"
     r="2"
     fill="#f2f2f2"
     id="circle2146" />
  <circle
     cx="877.78756"
     cy="215.54395"
     r="2"
     fill="#f2f2f2"
     id="circle2148" />
  <circle
     cx="235.78756"
     cy="236.54395"
     r="2"
     fill="#f2f2f2"
     id="circle2150" />
  <circle
     cx="563.78756"
     cy="196.54395"
     r="2"
     fill="#f2f2f2"
     id="circle2152" />
  <circle
     cx="629.78756"
     cy="52.54395"
     r="2"
     fill="#f2f2f2"
     id="circle2154" />
  <rect
     x="211.78756"
     y="288.54395"
     width="2"
     height="1"
     fill="#f2f2f2"
     id="rect2156" />
  <rect
     x="270.78756"
     y="135.54395"
     width="2"
     height="1"
     fill="#f2f2f2"
     id="rect2158" />
  <rect
     x="414.78756"
     y="249.54395"
     width="2"
     height="1"
     fill="#f2f2f2"
     id="rect2160" />
  <rect
     x="796.78756"
     y="293.54395"
     width="2"
     height="1"
     fill="#f2f2f2"
     id="rect2162" />
  <rect
     x="677.78756"
     y="140.54395"
     width="2"
     height="1"
     fill="#f2f2f2"
     id="rect2164" />
  <rect
     x="180.60974"
     y="322.47213"
     width="4.56231"
     height="180.21124"
     fill="#3f3d56"
     id="rect2170" />
  <path
     d="M320.30235,501.938c.29043,63.01538-44.04422,114.30486-44.04422,114.30486s-44.80554-50.87864-45.096-113.894S275.20639,388.044,275.20639,388.044,320.01192,438.92259,320.30235,501.938Z"
     transform="translate(-93.02536 -198.5)"
     fill="#3f3d56"
     id="path2172" />
  <rect
     x="712.08928"
     y="363.68007"
     width="3.51907"
     height="139.0033"
     fill="#f9a826"
     id="rect2174" />
  <path
     d="M841.11075,579.89444c.224,48.606-33.97287,88.16737-33.97287,88.16737s-34.56009-39.24449-34.78411-87.85048S806.32664,492.044,806.32664,492.044,840.88673,531.28845,841.11075,579.89444Z"
     transform="translate(-93.02536 -198.5)"
     fill="#3f3d56"
     id="path2176" />
  <rect
     x="133.74738"
     y="395.46646"
     width="2.515626"
     height="107.21692"
     fill="#3f3d56"
     id="rect2178"
     style="stroke-width:0.742554" />
  <path
     d="m 159.47939,376.7343 c 0.16013,37.49109 -24.28569,68.00583 -24.28569,68.00583 0,0 -24.70546,-30.27032 -24.8656,-67.76141 -0.16014,-37.49108 24.28569,-68.00579 24.28569,-68.00579 0,0 24.70546,30.27028 24.8656,67.76137 z"
     fill="#3f3d56"
     id="path2180"
     style="stroke-width:0.742554" />
  <rect
     x="213.07172"
     y="381.90128"
     width="3.4329536"
     height="120.63526"
     fill="#3f3d56"
     id="rect2178-0"
     style="stroke-width:0.92012" />
  <path
     d="m 248.18695,360.82476 c 0.21853,42.18315 -33.14151,76.51685 -33.14151,76.51685 0,0 -33.71435,-34.05869 -33.93288,-76.24184 -0.21854,-42.18314 33.14151,-76.51681 33.14151,-76.51681 0,0 33.71435,34.05865 33.93288,76.2418 z"
     fill="#3f3d56"
     id="path2180-23"
     style="stroke-width:0.92012" />
  <rect
     x="451.08928"
     y="363.68007"
     width="3.51907"
     height="139.0033"
     fill="#3f3d56"
     id="rect2182" />
  <path
     d="M580.11075,537.89444c.224,48.606-33.97287,88.16737-33.97287,88.16737s-34.56009-39.24449-34.78411-87.85048S545.32664,450.044,545.32664,450.044,579.88673,489.28845,580.11075,537.89444Z"
     transform="translate(-93.02536 -198.5)"
     fill="#3f3d56"
     id="path2184" />
  <rect
     x="406.60974"
     y="322.47213"
     width="4.56231"
     height="180.21124"
     fill="#3f3d56"
     id="rect2186" />
  <path
     d="M546.30235,501.938c.29043,63.01538-44.04422,114.30486-44.04422,114.30486s-44.80554-50.87864-45.096-113.894S501.20639,388.044,501.20639,388.044,546.01192,438.92259,546.30235,501.938Z"
     transform="translate(-93.02536 -198.5)"
     fill="#3f3d56"
     id="path2188" />
  <rect
     x="367.08928"
     y="363.68007"
     width="3.51907"
     height="139.0033"
     fill="#3f3d56"
     id="rect2190" />
  <path
     d="M496.11075,537.89444c.224,48.606-33.97287,88.16737-33.97287,88.16737s-34.56009-39.24449-34.78411-87.85048S461.32664,450.044,461.32664,450.044,495.88673,489.28845,496.11075,537.89444Z"
     transform="translate(-93.02536 -198.5)"
     fill="#3f3d56"
     id="path2192" />
  <path
     d="M831.38738,626.91334l-58.80359-54.06855c-.15881,2.42975-.24146,4.88556-.2301,7.36652.22412,48.60608,34.78418,87.85046,34.78418,87.85046A162.81545,162.81545,0,0,0,831.38738,626.91334Z"
     transform="translate(-93.02536 -198.5)"
     fill="#f9a826"
     id="path2194" />
  <path
     d="M393.6691,688.7839c2.01475,7.44773,8.91572,12.0603,8.91572,12.0603s3.63442-7.46259,1.61967-14.91032-8.91572-12.06029-8.91572-12.06029S391.65435,681.33617,393.6691,688.7839Z"
     transform="translate(-93.02536 -198.5)"
     fill="#3f3d56"
     id="path2196" />
  <path
     d="M396.62963,687.18331c5.5285,5.38177,6.20377,13.65481,6.20377,13.65481s-8.28821-.45254-13.81671-5.83431-6.20377-13.65482-6.20377-13.65482S391.10113,681.80153,396.62963,687.18331Z"
     transform="translate(-93.02536 -198.5)"
     fill="#3f3d56"
     id="path2198" />
  <path
     d="M677.6691,688.7839c2.01475,7.44773,8.91572,12.0603,8.91572,12.0603s3.63442-7.46259,1.61967-14.91032-8.91572-12.06029-8.91572-12.06029S675.65435,681.33617,677.6691,688.7839Z"
     transform="translate(-93.02536 -198.5)"
     fill="#f9a826"
     id="path2200" />
  <path
     d="M680.62963,687.18331c5.5285,5.38177,6.20377,13.65481,6.20377,13.65481s-8.28821-.45254-13.81671-5.83431-6.20377-13.65482-6.20377-13.65482S675.10113,681.80153,680.62963,687.18331Z"
     transform="translate(-93.02536 -198.5)"
     fill="#f9a826"
     id="path2202" />
  <path
     d="M169.6691,688.7839c2.01475,7.44773,8.91572,12.0603,8.91572,12.0603s3.63442-7.46259,1.61967-14.91032-8.91572-12.06029-8.91572-12.06029S167.65435,681.33617,169.6691,688.7839Z"
     transform="translate(-93.02536 -198.5)"
     fill="#3f3d56"
     id="path2204" />
  <path
     d="M172.62963,687.18331c5.5285,5.38177,6.20377,13.65481,6.20377,13.65481s-8.28821-.45254-13.81671-5.83431-6.20377-13.65482-6.20377-13.65482S167.10113,681.80153,172.62963,687.18331Z"
     transform="translate(-93.02536 -198.5)"
     fill="#3f3d56"
     id="path2206" />
  <path
     d="M480.35814,419.20747,576.8684,564.86915a113.62605,113.62605,0,0,0,3.24237-26.97473c-.10926-23.702-8.3833-45.17511-16.83319-60.96l-4.46466,1.1095,4.19915-1.60193A155.07209,155.07209,0,0,0,545.32665,450.044s-2.4624,2.85-6.05945,7.95465c-12.67957-41.12823-38.06079-69.95465-38.06079-69.95465A197.509,197.509,0,0,0,480.35814,419.20747Z"
     transform="translate(-93.02536 -198.5)"
     fill="#f9a826"
     id="path2208" />
  <path
     d="m 520.61749,496.78885 a 2.87755,2.87755 0 1 0 0,-5.7551 h -23.65985 a 6.4344,6.4344 0 0 1 -2.87755,8.63265 2.87755,2.87755 0 0 0 2.87755,2.87755 h 23.65987 a 2.87755,2.87755 0 1 0 0,-5.7551 z"
     fill="#f2f2f2"
     opacity="0.1"
     id="path2210" />
  <path
     d="m 464.38327,490.85125 c 0.40429,15.6927 -9.088,11.6927 -20.59571,11.6927 -11.50771,0 -21,2 -21.07755,-11.6927 -0.0382,-6.74272 9.39741,-8.20933 20.90516,-8.20933 11.50775,0 20.59447,1.46874 20.7681,8.20933 z"
     fill="#3f3d56"
     id="path2212" />
  <path
     d="m 491.30513,497.05305 a 1.76355,1.76355 0 0 0 -0.59643,-0.192 29.82582,29.82582 0 0 1 -3.09937,-0.6626 6.5294,6.5294 0 0 1 -2.74328,-1.52636 6.6057,6.6057 0 0 0 -0.96619,-0.92542 1.1618,1.1618 0 0 0 -1.25977,-0.0905 0.83037,0.83037 0 0 0 -0.11157,0.106 q -0.21423,-0.14154 -0.42871,-0.283 -1.14221,-0.75183 -2.29541,-1.48675 l -0.0312,-0.0199 a 1.05655,1.05655 0 0 0 0.002,-0.36548 1.76634,1.76634 0 0 0 -0.76563,-0.95007 c 0.99219,-0.01 1.98951,-0.1001 2.97559,-0.20435 a 3.56935,3.56935 0 0 0 2.52612,-0.98742 0.68615,0.68615 0 0 0 0.176,-0.40808 c 0.001,-0.31067 -0.31934,-0.51386 -0.60681,-0.6316 a 6.10058,6.10058 0 0 0 -1.18665,-0.35009 6.49543,6.49543 0 0 1 -0.84155,-0.17566 4.24172,4.24172 0 0 1 -0.7085,-0.33478 q -0.73316,-0.40356 -1.46631,-0.80707 a 2.23769,2.23769 0 0 1 -0.56714,-0.39355 c -0.249,-0.26349 -0.35913,-0.63587 -0.61291,-0.89478 -0.23377,-0.23859 -1.1792,-0.55267 -1.31445,-0.0638 -0.0535,0.19305 0.15051,0.40674 0.17517,0.62262 a 9.90818,9.90818 0 0 0 -1.01477,-0.55756 c 0.0189,-0.0431 0.0441,-0.0823 0.0604,-0.127 a 13.07328,13.07328 0 0 1 -3.75952,-4.86737 c 0.14539,0.003 0.29065,0.0125 0.436,0.0113 a 1.11456,1.11456 0 0 0 0.70434,-0.17206 0.76909,0.76909 0 0 0 0.24963,-0.62463 2.11712,2.11712 0 0 0 -0.16857,-0.6731 5.15129,5.15129 0 0 0 -0.97339,-1.74627 5.841,5.841 0 0 0 -1.426,-1.013 l -0.0845,-0.0475 c -0.0357,-0.108 -0.0681,-0.217 -0.11121,-0.32257 a 17.17213,17.17213 0 0 0 -1.06946,-1.90283 12.45233,12.45233 0 0 1 -1.22277,-3.25666 4.19574,4.19574 0 0 0 -0.77185,-1.91565 c -0.76319,-0.84106 -2.072,-0.81982 -3.20044,-0.69262 -0.6438,0.0726 -1.28467,0.16955 -1.92481,0.269 -0.006,-0.0161 -0.006,-0.0337 -0.0129,-0.0497 a 1.3106,1.3106 0 0 1 -0.14734,-0.48548 2.01263,2.01263 0 0 1 0.0907,-0.40838 1.00286,1.00286 0 0 0 -0.28,-0.92139 c -0.0266,-0.0255 -0.053,-0.0543 -0.0795,-0.0823 q 0.10566,-0.24939 0.194,-0.50317 a 0.6043,0.6043 0 0 0 0.14075,-0.45569 4.82416,4.82416 0 0 0 0.18274,-1.25915 13.78848,13.78848 0 0 1 -0.10107,-2.841 1.59086,1.59086 0 0 0 -0.25,-0.65673 c -0.0234,-0.0316 -0.0625,-0.046 -0.0891,-0.0741 a 4.02209,4.02209 0 0 1 0.67089,-0.69659 10.09259,10.09259 0 0 1 1.57447,-0.99775 c 0.13281,-0.0731 0.31811,-0.12512 0.44506,-0.20892 a 4.45646,4.45646 0 0 0 0.58863,0.0593 4.48869,4.48869 0 0 0 4.20776,-6.12317 1.57362,1.57362 0 0 0 0.98,-0.72315 2.94537,2.94537 0 0 0 0.38452,-1.2456 1.30425,1.30425 0 0 0 -0.18823,-0.98468 2.20151,2.20151 0 0 0 -0.57263,-0.40058 2.19494,2.19494 0 0 1 -0.71338,-0.72229 c -0.12646,-0.20874 -0.217,-0.43689 -0.33069,-0.65283 a 2.4202,2.4202 0 0 0 -2.09118,-1.38586 9.03817,9.03817 0 0 0 -1.244,0.24792 c -1.39991,0.24549 -2.92176,-0.49524 -4.22046,0.0825 a 3.9278,3.9278 0 0 0 -0.88306,0.58887 q -0.54858,0.45236 -1.05444,0.95306 a 2.1824,2.1824 0 0 0 -0.64258,0.9353 c -0.17639,0.66254 0.24316,1.40284 -0.0238,2.03437 a 3.07119,3.07119 0 0 1 -0.32557,0.51135 c -0.29467,0.43213 0.0254,2.11914 -0.007,2.64117 a 0.97881,0.97881 0 0 0 0.18067,0.72358 0.61087,0.61087 0 0 0 0.13147,0.1004 58.57379,58.57379 0 0 0 -6.3794,2.71124 13.67072,13.67072 0 0 0 -5.91955,5.52924 c -0.35156,0.68554 -0.6189,1.41064 -0.937,2.11242 -0.42395,0.93586 -0.937,1.82819 -1.44934,2.71888 -0.62488,1.08636 -1.25086,2.17462 -1.97352,3.19854 a 18.33463,18.33463 0 0 0 -1.14257,1.69361 1.625,1.625 0 0 0 -0.008,0.25689 0.45932,0.45932 0 0 1 -0.0232,0.2406 0.37171,0.37171 0 0 1 -0.27331,0.15638 l -0.017,0.0441 a 15.66155,15.66155 0 0 0 -0.40552,1.60138 c -0.21337,0.859 -0.55346,1.68811 -0.68432,2.56354 a 0.68174,0.68174 0 0 0 0.66528,1.06226 c 0.74915,0.33319 1.47095,0.72332 2.19043,1.11682 -0.0106,0.0528 -0.0271,0.10364 -0.0338,0.15759 a 2.9519,2.9519 0 0 0 1.56445,2.73352 8.05082,8.05082 0 0 0 3.19275,0.86768 c 0.4314,0.0518 0.86548,0.0759 1.29761,0.11993 a 8.81934,8.81934 0 0 0 1.99853,0.80982 1.85314,1.85314 0 0 0 0.46778,0.0733 1.42218,1.42218 0 0 0 1.06933,-0.60242 73.85972,73.85972 0 0 0 11.15405,-0.2276 4.08064,4.08064 0 0 1 3.01038,0.46668 c 0.80408,0.65344 0.9657,1.81176 1.56311,2.65844 a 9.80322,9.80322 0 0 0 1.45435,1.41871 21.66952,21.66952 0 0 1 2.79272,3.67083 8.24067,8.24067 0 0 0 3.36475,3.1059 2.381,2.381 0 0 1 1.04443,-0.90851 c 0.11133,-0.0662 0.21753,-0.14349 0.3269,-0.21472 a 4.109,4.109 0 0 0 0.51062,0.66565 c 0.14319,0.15491 0.28577,0.31854 0.41968,0.48736 -0.004,4.3e-4 -0.008,-0.002 -0.0122,-10e-4 -0.19471,0.0306 -0.25989,0.27386 -0.28223,0.46967 q -0.12835,1.12462 -0.257,2.2492 a 0.83679,0.83679 0 0 0 0.03,0.44452 0.78577,0.78577 0 0 0 0.40454,0.33569 6.09134,6.09134 0 0 0 2.21875,0.58533 c 0.38745,0.0263 0.77686,0.0155 1.16358,0.0496 a 14.05834,14.05834 0 0 1 1.87963,0.37525 17.67309,17.67309 0 0 0 5.1272,0.40149 3.26142,3.26142 0 0 0 1.03992,-0.197 3.092,3.092 0 0 0 1.02649,-0.79467 2.90688,2.90688 0 0 0 0.77221,-1.23688 1.20147,1.20147 0 0 0 -0.44284,-1.30498 z"
     fill="#3f3d56"
     id="path2214" />
  <path
     d="m 463.64083,446.81873 c 0.166,-0.0291 0.32959,-0.0743 0.4934,-0.11645 a 3.60492,3.60492 0 0 0 -1.56518,0.15124 4.36632,4.36632 0 0 0 1.07178,-0.0348 z"
     fill="#ff6584"
     id="path2216" />
  <path
     d="m 466.97603,447.95667 c 0.11365,0.21594 0.20423,0.44409 0.33069,0.65283 a 2.19494,2.19494 0 0 0 0.71338,0.72229 2.20151,2.20151 0 0 1 0.57263,0.40058 1.30425,1.30425 0 0 1 0.18823,0.98468 2.94537,2.94537 0 0 1 -0.38452,1.2456 1.57362,1.57362 0 0 1 -0.98,0.72315 4.40889,4.40889 0 0 1 -4.79639,6.06384 c -0.127,0.0838 -0.31225,0.1358 -0.44506,0.20892 a 10.09259,10.09259 0 0 0 -1.57447,0.99775 4.02209,4.02209 0 0 0 -0.67089,0.69659 c 0.0266,0.0281 0.0657,0.0425 0.0891,0.0741 a 1.59086,1.59086 0 0 1 0.25,0.65673 13.78848,13.78848 0 0 0 0.10107,2.841 4.82416,4.82416 0 0 1 -0.18274,1.25915 0.6043,0.6043 0 0 1 -0.14075,0.45569 q -0.0888,0.25378 -0.194,0.50317 c 0.0265,0.028 0.0529,0.0568 0.0795,0.0823 a 1.00286,1.00286 0 0 1 0.28,0.92139 2.01263,2.01263 0 0 0 -0.0907,0.40838 1.3106,1.3106 0 0 0 0.14734,0.48548 c 0.006,0.0159 0.007,0.0336 0.0129,0.0497 0.64014,-0.0994 1.281,-0.19641 1.92481,-0.269 a 9.45448,9.45448 0 0 1 0.95532,-0.0627 0.66,0.66 0 0 1 -0.0404,-0.20349 2.01263,2.01263 0 0 1 0.0907,-0.40838 1.00286,1.00286 0 0 0 -0.28,-0.92139 c -0.0266,-0.0255 -0.053,-0.0543 -0.0795,-0.0823 q 0.10566,-0.24939 0.194,-0.50317 a 0.6043,0.6043 0 0 0 0.14075,-0.45569 4.82416,4.82416 0 0 0 0.18274,-1.25915 13.78848,13.78848 0 0 1 -0.10107,-2.841 1.59086,1.59086 0 0 0 -0.25,-0.65673 c -0.0234,-0.0316 -0.0625,-0.046 -0.0891,-0.0741 a 4.02209,4.02209 0 0 1 0.67089,-0.69659 10.09259,10.09259 0 0 1 1.57447,-0.99775 c 0.13281,-0.0731 0.31811,-0.12512 0.44506,-0.20892 a 4.45646,4.45646 0 0 0 0.58863,0.0593 4.48869,4.48869 0 0 0 4.20776,-6.12317 1.57362,1.57362 0 0 0 0.98,-0.72315 2.94537,2.94537 0 0 0 0.38452,-1.2456 1.30425,1.30425 0 0 0 -0.18823,-0.98468 2.20151,2.20151 0 0 0 -0.57263,-0.40058 2.19494,2.19494 0 0 1 -0.71338,-0.72229 c -0.12646,-0.20874 -0.217,-0.43689 -0.33069,-0.65283 a 2.4202,2.4202 0 0 0 -2.09118,-1.38586 9.03817,9.03817 0 0 0 -1.244,0.24792 3.78441,3.78441 0 0 1 -0.69312,0.0458 2.792,2.792 0 0 1 1.0283,1.09218 z"
     fill="#ff6584"
     id="path2218" />
  <path
     d="m 491.30513,497.05305 a 1.76355,1.76355 0 0 0 -0.59643,-0.192 29.82582,29.82582 0 0 1 -3.09937,-0.6626 6.5294,6.5294 0 0 1 -2.74328,-1.52636 6.6057,6.6057 0 0 0 -0.96619,-0.92542 1.1618,1.1618 0 0 0 -1.25977,-0.0905 0.83037,0.83037 0 0 0 -0.11157,0.106 q -0.21423,-0.14154 -0.42871,-0.283 -1.14221,-0.75183 -2.29541,-1.48675 l -0.0312,-0.0199 a 1.05655,1.05655 0 0 0 0.002,-0.36548 1.76634,1.76634 0 0 0 -0.76563,-0.95007 c 0.99219,-0.01 1.98951,-0.1001 2.97559,-0.20435 a 3.56935,3.56935 0 0 0 2.52612,-0.98742 0.68615,0.68615 0 0 0 0.176,-0.40808 c 0.001,-0.31067 -0.31934,-0.51386 -0.60681,-0.6316 a 6.10058,6.10058 0 0 0 -1.18665,-0.35009 6.49543,6.49543 0 0 1 -0.84155,-0.17566 4.24172,4.24172 0 0 1 -0.7085,-0.33478 q -0.73316,-0.40356 -1.46631,-0.80707 a 2.23769,2.23769 0 0 1 -0.56714,-0.39355 c -0.249,-0.26349 -0.35913,-0.63587 -0.61291,-0.89478 -0.23377,-0.23859 -1.1792,-0.55267 -1.31445,-0.0638 -0.0535,0.19305 0.15051,0.40674 0.17517,0.62262 a 9.90818,9.90818 0 0 0 -1.01477,-0.55756 c 0.0189,-0.0431 0.0441,-0.0823 0.0604,-0.127 a 13.07328,13.07328 0 0 1 -3.75952,-4.86737 c 0.14539,0.003 0.29065,0.0125 0.436,0.0113 a 1.11456,1.11456 0 0 0 0.70434,-0.17206 0.76909,0.76909 0 0 0 0.24963,-0.62463 2.11712,2.11712 0 0 0 -0.16857,-0.6731 5.15129,5.15129 0 0 0 -0.97339,-1.74627 5.841,5.841 0 0 0 -1.426,-1.013 l -0.0845,-0.0475 c -0.0357,-0.108 -0.0681,-0.217 -0.11121,-0.32257 a 17.17213,17.17213 0 0 0 -1.06946,-1.90283 12.45233,12.45233 0 0 1 -1.22277,-3.25666 4.19574,4.19574 0 0 0 -0.77185,-1.91565 c -0.76319,-0.84106 -2.072,-0.81982 -3.20044,-0.69262 -0.2522,0.0284 -0.50257,0.0707 -0.754,0.10534 a 2.1324,2.1324 0 0 1 0.95447,0.58728 4.19574,4.19574 0 0 1 0.77185,1.91565 12.45233,12.45233 0 0 0 1.22277,3.25666 17.17213,17.17213 0 0 1 1.06946,1.90283 c 0.0431,0.10559 0.0756,0.2146 0.11121,0.32257 l 0.0845,0.0475 a 5.841,5.841 0 0 1 1.426,1.013 5.15129,5.15129 0 0 1 0.97339,1.74627 2.11712,2.11712 0 0 1 0.16857,0.6731 0.76909,0.76909 0 0 1 -0.24963,0.62463 1.11456,1.11456 0 0 1 -0.70434,0.17206 c -0.14539,0.001 -0.29065,-0.008 -0.436,-0.0113 a 13.07328,13.07328 0 0 0 3.75952,4.86737 c -0.0164,0.0447 -0.0415,0.0839 -0.0604,0.127 a 9.90818,9.90818 0 0 1 1.01477,0.55756 c -0.0247,-0.21588 -0.22864,-0.42957 -0.17517,-0.62262 0.13525,-0.48883 1.08068,-0.17475 1.31445,0.0638 0.25378,0.25891 0.36389,0.63129 0.61291,0.89478 a 2.23769,2.23769 0 0 0 0.56714,0.39355 q 0.73315,0.40347 1.46631,0.80707 a 4.24172,4.24172 0 0 0 0.7085,0.33478 6.49543,6.49543 0 0 0 0.84155,0.17566 6.10058,6.10058 0 0 1 1.18665,0.35009 c 0.28747,0.11774 0.608,0.32093 0.60681,0.6316 a 0.68615,0.68615 0 0 1 -0.176,0.40808 3.56935,3.56935 0 0 1 -2.52612,0.98742 c -0.98608,0.10425 -1.9834,0.19483 -2.97559,0.20435 a 1.76634,1.76634 0 0 1 0.76563,0.95007 1.05655,1.05655 0 0 1 -0.002,0.36548 l 0.0312,0.0199 q 1.1532,0.73489 2.29541,1.48675 0.2146,0.14118 0.42871,0.283 a 0.83037,0.83037 0 0 1 0.11157,-0.106 1.1618,1.1618 0 0 1 1.25977,0.0905 6.6057,6.6057 0 0 1 0.96619,0.92542 6.5294,6.5294 0 0 0 2.74328,1.52636 29.82582,29.82582 0 0 0 3.09937,0.6626 1.76355,1.76355 0 0 1 0.59643,0.192 1.20147,1.20147 0 0 1 0.44287,1.30505 2.90688,2.90688 0 0 1 -0.77221,1.23688 3.092,3.092 0 0 1 -1.02649,0.79467 2.675,2.675 0 0 1 -0.76111,0.1673 17.64941,17.64941 0 0 0 2.72119,0.0297 3.26142,3.26142 0 0 0 1.03992,-0.197 3.092,3.092 0 0 0 1.02649,-0.79467 2.90688,2.90688 0 0 0 0.77221,-1.23688 1.20147,1.20147 0 0 0 -0.4429,-1.30502 z"
     fill="#ff6584"
     id="path2220" />
  <path
     d="m 474.6689,494.54914 c 0.0496,0.0453 0.098,0.0922 0.14868,0.13605 -0.0369,-0.0538 -0.0778,-0.10553 -0.11084,-0.16089 z"
     fill="#ff6584"
     id="path2222" />
  <path
     d="m 519.33858,486.23783 c 0,10.59485 -4.72386,7.67347 -10.551,7.67347 -5.82714,0 -10.551,2.92138 -10.551,-7.67347 0,-10.59485 10.551,-30.69388 10.551,-30.69388 0,0 10.551,20.09905 10.551,30.69388 z"
     fill="#ff6584"
     id="path2224" />
  <path
     d="m 513.58347,490.29149 c 0,4.81584 -2.1472,3.48794 -4.79591,3.48794 -2.64871,0 -4.79592,1.3279 -4.79592,-3.48794 0,-4.81584 4.79592,-13.95176 4.79592,-13.95176 0,0 4.79591,9.13592 4.79591,13.95176 z"
     opacity="0.1"
     id="path2226" />
  <path
     d="m 522.0127,457.92815 c 0,0 2.192,-2.27928 2.14838,-4.51492"
     fill="#ff6584"
     id="path2228" />
  <path
     d="m 499.54916,438.9359 c 0,0 -0.9151,-3.027 -2.88614,-4.08291"
     fill="#ff6584"
     id="path2230" />
  <path
     d="m 477.54916,397.9359 c 0,0 -0.9151,-3.027 -2.88614,-4.08291"
     fill="#ff6584"
     id="path2232" />
  <path
     d="m 503.54916,452.9359 c 0,0 -0.9151,-3.027 -2.88614,-4.08291"
     fill="#ff6584"
     id="path2234" />
  <path
     d="m 500.54916,403.9359 c 0,0 -0.9151,-3.027 -2.88614,-4.08291"
     fill="#ff6584"
     id="path2236" />
  <path
     d="m 494.54916,421.9359 c 0,0 -0.9151,-3.027 -2.88614,-4.08291"
     fill="#ff6584"
     id="path2238" />
  <path
     d="m 520.0127,488.92815 c 0,0 2.192,-2.27928 2.14838,-4.51492"
     fill="#ff6584"
     id="path2240" />
  <path
     d="m 524.0127,471.92815 c 0,0 2.192,-2.27928 2.14838,-4.51492"
     fill="#ff6584"
     id="path2242" />
  <rect
     x="297.51538"
     y="602.04816"
     width="25.29822"
     height="1.00056"
     transform="rotate(-18.43495)"
     fill="#ff6584"
     id="rect2244" />
  <path
     d="m 494.88678,470.02342 c 0.90078,3.52053 -0.61161,2.67955 -1.99108,2.965 -1.37947,0.28545 -1.10814,1.55549 -3.00439,-1.9312 -1.31147,-2.41144 0.61162,-2.67955 1.99108,-2.965 1.37946,-0.28545 2.3893,-0.47281 3.00439,1.9312 z"
     fill="#ff6584"
     id="path2246" />
  <polygon
     points="552.908,257.894 552.712,257.943 543.975,250 543.553,249.877 544.008,249.704 451.089,164.271 361.353,81.762 315.628,106.016 311.888,106.844 366.685,189.544 574.068,502.544 818.988,502.544 574.728,277.957 574.727,277.956 "
     fill="#f2f2f2"
     opacity="0.1"
     id="polygon2248" />
  <circle
     cx="334.78756"
     cy="92.54395"
     r="27"
     fill="#f2f2f2"
     id="circle2250" />
  <circle
     cx="920.31848"
     cy="237.987"
     r="2"
     fill="#f2f2f2"
     id="circle2150-6" />
  <rect
     x="896.31848"
     y="289.987"
     width="2"
     height="1"
     fill="#f2f2f2"
     id="rect2156-2" />
  <rect
     x="909.62024"
     y="365.12311"
     width="3.5190699"
     height="139.0033"
     fill="#3f3d56"
     id="rect2166-6"
     inkscape:label="rect2166-6" />
  <path
     d="m 945.61633,340.83748 c 0.224,48.606 -33.97287,88.16737 -33.97287,88.16737 0,0 -34.56009,-39.24449 -34.78411,-87.85048 -0.22402,-48.60599 33.97287,-88.16733 33.97287,-88.16733 0,0 34.56009,39.24445 34.78411,87.85044 z"
     fill="#3f3d56"
     id="path2168-1" />
  <rect
     x="865.14069"
     y="323.91516"
     width="4.5623102"
     height="180.21124"
     fill="#3f3d56"
     id="rect2170-8" />
  <path
     d="m 911.80793,304.88104 c 0.29043,63.01538 -44.04422,114.30486 -44.04422,114.30486 0,0 -44.80554,-50.87864 -45.096,-113.894 -0.29046,-63.01536 44.04426,-114.30486 44.04426,-114.30486 0,0 44.80553,50.87859 45.09596,113.894 z"
     fill="#3f3d56"
     id="path2172-7" />
  <rect
     x="825.62024"
     y="365.12311"
     width="3.5190699"
     height="139.0033"
     fill="#3f3d56"
     id="rect2178-9" />
  <path
     d="m 861.61633,340.83748 c 0.224,48.606 -33.97287,88.16737 -33.97287,88.16737 0,0 -34.56009,-39.24449 -34.78411,-87.85048 -0.22402,-48.60599 33.97287,-88.16733 33.97287,-88.16733 0,0 34.56009,39.24445 34.78411,87.85044 z"
     fill="#3f3d56"
     id="path2180-2" />
  <metadata
     id="metadata2444">
    <rdf:RDF>
      <cc:Work
         rdf:about="">
        <dc:title>moonlight</dc:title>
      </cc:Work>
    </rdf:RDF>
  </metadata>
</svg>
