<svg width="1300" height="1300" viewBox="0 0 1300 1300" fill="none" xmlns="http://www.w3.org/2000/svg">
<mask id="mask0_410_1383" style="mask-type:alpha" maskUnits="userSpaceOnUse" x="0" y="0" width="1296" height="1296">
<path d="M1295.74 647.869C1295.74 1005.68 1005.68 1295.74 647.869 1295.74C290.061 1295.74 0 1005.68 0 647.869C0 290.061 290.061 0 647.869 0C1005.68 0 1295.74 290.061 1295.74 647.869Z" fill="#D9D9D9"/>
</mask>
<g mask="url(#mask0_410_1383)">
<path d="M1093.08 1225.39C1084.76 1171.71 1048.01 1081.38 1025.69 1057.08C1001.19 1030.6 991.121 1022.25 909.293 999.402C904.917 981.264 888.727 935.558 869.473 916.333C840.155 879.696 760.078 871.353 736.011 875.705C736.011 875.705 606.486 837.98 457.271 837.98C410.012 846.686 355.315 864.46 325.559 901.823C305.43 926.49 328.185 934.47 318.12 956.96C315.495 962.764 254.233 991.784 229.291 1009.2C217.914 1016.81 205.224 1036.04 196.472 1061.07C178.969 1112.22 197.785 1182.95 175.906 1244.62C133.898 1363.6 48.5698 1399.15 48.5698 1399.15H1179.28C1178.41 1398.78 1111.02 1338.57 1093.08 1225.39Z" fill="black"/>
<path d="M1086.52 1226.12C1077.76 1178.6 1060.26 1131.44 1037.94 1087.19C1027 1065.78 1010.38 1045.11 987.184 1032.41C975.37 1026.25 962.242 1021.53 948.677 1016.81C935.112 1012.46 921.109 1008.47 907.544 1004.48C905.357 1003.76 903.606 1002.3 903.169 1000.49C901.418 993.236 899.23 986.344 896.605 979.089C885.228 949.706 872.975 917.059 839.719 900.01C814.34 887.314 784.146 881.147 754.828 880.059C749.14 880.059 743.014 880.059 737.763 880.785H736.012C735.575 880.785 734.7 880.785 734.262 880.422C713.258 872.079 690.066 867 667.312 861.922C599.049 848.863 527.724 843.422 457.71 843.059C414.827 851.402 354.879 870.991 328.624 907.265C324.248 913.069 322.06 918.873 322.935 925.402C323.811 932.657 326.874 940.638 324.686 948.255C323.81 951.52 322.935 955.147 321.185 958.049C317.684 962.04 311.996 964.579 307.62 967.118C284.866 979.451 261.674 990.334 239.795 1003.03C232.356 1007.38 225.355 1011.37 220.104 1017.54C204.788 1035.68 195.599 1057.44 191.661 1079.21C184.66 1123.46 191.661 1168.44 184.66 1212.7C176.783 1256.95 156.217 1299.76 127.336 1337.48C107.208 1362.87 82.703 1386.45 51.6347 1402.77L48.5716 1392.62H1179.28L1174.47 1401.69C1161.34 1389.35 1150.84 1375.93 1141.21 1361.78C1111.46 1320.43 1093.95 1273.64 1086.52 1226.12ZM1099.64 1224.67C1104.46 1255.5 1113.65 1285.97 1127.65 1314.99C1141.65 1343.65 1159.15 1371.58 1183.66 1395.16C1187.16 1398.42 1184.1 1404.59 1178.85 1404.23H48.134C44.6334 1404.23 41.5703 1401.69 41.5703 1398.78C41.5703 1396.61 42.8831 1394.79 45.071 1394.07C52.0723 1390.8 59.0736 1386.09 65.6373 1381.37C122.961 1338.57 158.842 1275.09 170.657 1211.97C180.721 1152.84 161.905 1089 193.849 1032.77C201.288 1019.72 210.477 1005.93 225.355 997.589C252.485 980.902 282.24 968.569 308.933 952.246C309.37 952.246 309.37 951.883 309.37 951.883C308.933 952.246 308.495 952.971 308.495 953.334C311.121 948.255 311.996 943.902 311.121 938.098C309.808 930.844 307.62 921.049 310.683 913.432C311.996 909.079 314.621 905.089 317.247 901.824C348.753 862.647 404.326 845.236 457.273 835.442C472.151 835.804 487.466 833.628 502.344 833.628C522.91 833.628 543.914 836.167 564.48 838.344C623.554 845.961 680.44 859.02 738.638 869.54L734.7 869.177C748.265 867 760.955 868.089 774.082 869.54C858.098 880.059 886.541 910.53 909.295 975.461C911.92 982.716 914.108 989.971 916.296 997.589L911.92 993.236C953.928 1005.57 1001.19 1016.81 1027.88 1049.1C1037.51 1058.89 1044.51 1070.5 1050.63 1082.11C1072.95 1128.54 1090.45 1175.33 1099.64 1224.67Z" fill="white"/>
<path d="M403.451 986.707C435.832 1044.02 486.154 1092.63 546.103 1131.08C548.291 1132.53 546.103 1135.43 543.478 1134.34C490.093 1113.31 445.022 1077.39 418.329 1033.86C409.578 1019.35 402.139 1003.76 399.513 987.433C398.638 985.619 402.139 984.894 403.451 986.707Z" fill="white"/>
<path d="M915.86 998.678C917.172 1059.26 887.417 1121.29 830.531 1160.46C829.219 1161.55 827.468 1161.19 826.155 1160.1C824.843 1159.01 825.28 1157.56 826.593 1156.47C839.283 1146.31 851.973 1135.8 861.6 1123.46C881.728 1099.52 893.981 1071.23 899.669 1042.57C902.295 1028.42 904.045 1013.19 902.732 999.04C902.295 992.148 915.422 991.423 915.86 998.678Z" fill="white"/>
<path d="M658.123 1142.69C648.059 1172.07 639.745 1203.99 644.558 1234.46C645.871 1241.35 633.181 1243.17 631.43 1235.91C629.243 1219.23 631.868 1202.9 635.369 1186.94C639.307 1170.98 644.12 1155.75 650.684 1140.51C652.434 1136.88 659.873 1138.7 658.123 1142.69Z" fill="white"/>
<path d="M797.274 1137.25C811.714 1163 821.779 1189.84 829.655 1217.05C830.53 1219.95 828.342 1222.85 824.842 1223.58C821.341 1224.3 817.84 1222.49 816.965 1219.59C812.589 1199.28 806.901 1178.96 799.024 1159.01C796.399 1152.48 793.773 1145.95 790.71 1139.42C788.96 1136.16 795.086 1133.62 797.274 1137.25Z" fill="white"/>
<path d="M327.311 955.51C343.502 1028.78 405.638 1090.81 480.465 1130.35C505.845 1143.78 532.975 1155.38 560.98 1164.81C562.73 1165.54 563.605 1166.99 562.73 1168.44C562.293 1169.89 560.105 1170.62 558.792 1169.89C529.912 1161.19 501.906 1150.3 475.651 1137.25C422.267 1111.13 375.445 1074.85 343.939 1030.6C327.749 1007.75 315.059 983.805 308.933 957.687C308.058 953.334 311.558 949.344 316.809 948.618C321.623 947.53 326.874 950.795 327.311 955.51Z" fill="white"/>
<path d="M631.866 1242.44C619.614 1241.35 610.862 1231.92 613.488 1221.77L618.301 1202.54C620.052 1194.92 628.803 1189.48 637.992 1190.57C647.182 1191.29 654.621 1197.82 654.621 1205.8V1225.39C655.058 1235.55 644.556 1243.53 631.866 1242.44Z" fill="white"/>
<path d="M833.593 1229.02C821.779 1232.65 809.089 1226.84 806.026 1216.69L800.337 1197.46C798.149 1189.84 802.963 1182.23 812.152 1179.32C820.903 1176.78 830.968 1180.05 834.906 1186.94L845.408 1204.72C850.659 1214.51 845.408 1225.76 833.593 1229.02Z" fill="white"/>
<path d="M263.424 1398.78C263.424 1398.78 259.486 1317.89 246.359 1296.13" stroke="white" stroke-width="5.1257" stroke-miterlimit="10" stroke-linecap="round" stroke-linejoin="round"/>
<path d="M1035.76 1218.14C1035.76 1218.14 1060.26 1332.04 1050.63 1398.78" stroke="white" stroke-width="5.1257" stroke-miterlimit="10" stroke-linecap="round" stroke-linejoin="round"/>
<path d="M464.273 942.452C458.147 927.942 455.521 913.069 456.834 897.834C456.834 896.383 458.147 895.658 459.897 895.658C461.21 895.658 462.522 896.746 462.522 897.834C463.835 911.619 468.649 925.766 476.525 937.736C480.463 944.991 467.336 949.707 464.273 942.452Z" fill="white"/>
<path d="M760.078 961.677C747.825 938.824 717.632 927.216 690.94 919.236C674.312 914.883 655.933 911.618 638.43 909.442C595.984 904.001 536.036 895.657 493.59 892.03C493.153 892.03 493.153 891.305 493.59 891.305C505.843 890.216 518.095 890.216 530.347 890.216C567.104 890.942 603.861 894.207 640.18 898.922C676.5 903.638 715.444 912.706 743.012 934.471C751.764 942.089 759.64 950.795 761.828 961.314C762.266 962.403 760.515 962.765 760.078 961.677Z" fill="white"/>
<path d="M774.447 1041.4C765.526 1085.16 707.748 1111.5 610.46 1071.99C509.349 1031.2 465.591 933.915 454.545 905.026C514.447 792.869 472.813 715.124 472.813 715.124C610.885 703.229 731.539 864.667 731.539 864.667L750.232 944.536C751.931 951.333 755.33 957.281 760.428 961.529C769.349 977.248 779.97 1013.36 774.447 1041.4Z" fill="white"/>
<path d="M452.423 906.301C460.495 893.98 465.593 879.536 468.992 865.516C475.364 836.203 477.489 806.464 477.913 776.725V765.68C476.639 754.634 472.815 743.163 468.567 732.967C463.044 719.373 483.011 710.876 489.384 724.471C490.234 726.17 490.234 729.144 490.234 730.843C491.508 788.621 494.057 862.967 457.521 910.974C454.972 913.523 449.874 909.699 452.423 906.301Z" fill="black"/>
<path d="M736.213 863.817C742.585 867.641 744.709 872.739 745.559 877.837C748.108 888.033 747.258 899.079 749.807 909.7C751.932 919.896 758.304 929.667 760.004 940.288C762.128 951.334 768.5 974.7 771.049 986.17C771.899 988.719 770.2 991.693 767.226 992.118C765.526 992.543 764.252 992.118 762.977 991.268C757.455 986.595 754.906 981.922 751.507 975.974C745.984 965.778 742.16 956.432 738.762 944.961C735.788 934.765 737.062 923.719 734.513 913.098C732.389 902.902 726.441 893.131 724.317 882.51C723.043 877.412 722.618 871.889 726.441 865.517C728.99 862.968 733.239 862.118 736.213 863.817Z" fill="black"/>
<path d="M766.802 975.974C685.659 971.725 619.384 946.235 554.809 831.104C609.188 879.111 673.338 897.379 740.887 905.876L749.809 944.961C751.508 951.758 761.704 971.725 766.802 975.974Z" fill="black"/>
<path d="M763.405 960.255C777.85 987.444 786.347 1021.43 777.425 1051.59C770.628 1072.84 751.085 1088.56 729.843 1094.5C680.562 1107.67 623.634 1086.86 579.876 1063.49C525.922 1033.33 485.987 982.771 460.497 927.542C458.798 923.294 464.745 919.895 467.294 924.144C476.216 941.987 486.412 959.405 497.882 975.124C509.353 991.268 522.523 1006.14 537.392 1019.31C580.726 1058.39 639.353 1082.61 697.981 1082.61C758.307 1080.91 781.249 1049.05 767.229 990.418C765.105 981.072 761.706 971.301 757.033 963.229C754.484 959.83 760.856 956.006 763.405 960.255Z" fill="black"/>
<path d="M927.815 450.026C935.463 485.712 909.972 523.948 909.972 619.111C909.972 716.399 892.129 822.183 818.632 895.68C755.332 958.98 682.685 956.431 597.293 889.732C585.397 880.386 543.763 848.948 533.142 838.327C520.822 826.007 514.025 817.085 508.077 807.739C502.979 799.242 504.253 749.961 497.031 738.49C478.338 707.477 474.515 741.039 450.299 713.85C416.737 677.314 376.378 603.817 396.345 473.817C428.632 263.098 595.593 238.458 719.221 261.824C843.698 285.614 907.423 356.137 927.815 450.026Z" fill="white"/>
<path d="M471.541 751.66C461.77 735.516 449.449 721.072 437.979 706.202C426.508 690.484 417.162 673.915 409.515 656.072C366.181 551.137 372.554 413.915 449.449 325.549C502.129 265.222 585.397 245.255 661.868 249.503C738.338 254.176 817.783 273.719 874.286 328.948C906.998 360.81 927.815 403.294 937.162 447.477C940.136 461.497 938.011 476.791 934.613 489.961C924.842 526.921 915.495 562.183 914.645 600.418C915.07 657.346 913.371 715.549 896.802 770.353C884.907 806.889 870.887 843.425 848.796 875.287C825.855 907.575 791.443 933.49 751.933 941.137C672.489 957.281 598.142 907.15 545.462 852.771C543.338 850.222 546.312 847.248 548.861 848.948C579.024 871.889 610.038 893.131 643.6 907.575C740.462 952.183 820.757 910.974 863.24 817.51C898.926 749.536 909.123 676.039 906.149 599.993C906.149 580.876 906.998 561.758 909.547 542.64C912.096 515.026 921.443 487.412 921.018 460.222C913.796 416.039 893.404 373.555 862.815 340.843C790.168 263.948 650.822 241.431 553.109 276.268C437.979 317.052 406.966 433.033 400.593 543.915C396.345 610.189 415.887 675.189 466.018 720.647L485.985 741.464C492.783 750.81 478.338 761.856 471.541 751.66Z" fill="black"/>
<path d="M521.672 616.562C521.672 616.562 508.502 552.837 446.476 560.484C392.946 567.281 374.253 695.582 495.757 731.268" fill="white"/>
<path d="M490.234 675.614C480.462 670.092 473.665 660.745 473.24 649.275C473.665 640.778 474.94 631.007 472.815 622.51C471.541 614.438 463.044 612.314 456.672 612.739C449.874 614.013 445.626 622.51 444.351 629.307C444.351 629.732 443.926 631.007 443.926 631.431C443.502 633.556 440.103 633.556 439.253 631.431C433.73 614.863 446.051 596.595 463.894 598.719C488.959 600.418 492.358 626.758 487.685 646.726C485.136 655.222 488.534 662.869 493.208 670.092L494.057 671.366C496.181 673.915 492.783 677.314 490.234 675.614Z" fill="black"/>
<path d="M830.103 571.529C836.475 601.693 848.371 629.732 863.24 656.072C876.41 688.359 842.423 718.947 812.26 717.673C808.861 717.673 808.436 713 811.41 712.15C830.528 706.202 847.946 693.457 850.92 673.915C852.194 667.967 850.495 662.869 847.521 657.771C833.502 631.431 825.005 601.268 827.129 571.529C827.129 569.405 830.103 569.405 830.103 571.529Z" fill="black"/>
<path d="M519.549 616.987C509.778 591.921 488.536 568.13 460.072 568.555C457.523 568.13 453.275 568.98 450.726 568.98C443.503 569.405 437.556 571.954 432.033 577.052C404.843 604.241 409.517 652.248 431.608 682.411C439.255 693.032 449.026 702.379 460.072 710.026C471.118 717.673 483.438 723.621 496.608 728.719C499.582 729.568 498.307 734.241 495.334 733.817C466.869 727.869 439.68 713.849 420.987 690.483C392.098 655.647 386.15 597.444 420.562 563.457C428.209 556.66 438.83 551.562 449.451 551.562C452.85 551.562 457.948 550.712 461.347 551.562C479.19 552.411 496.183 561.333 507.229 575.353C517 587.248 522.523 601.692 524.222 616.137C524.222 618.686 520.399 619.536 519.549 616.987Z" fill="black"/>
<path d="M906.544 335.455C913.502 319.095 913.502 301.176 901.904 285.594C868.27 240.797 764.274 274.687 706.284 255.989C619.299 227.552 511.437 224.046 448.034 329.223C432.184 355.712 424.452 363.113 402.029 384.148C378.833 405.963 360.663 446.086 359.116 501.011C355.637 611.252 441.462 707.079 441.462 707.079C445.715 712.922 449.581 717.986 453.06 722.271C483.988 759.667 493.653 831.733 484.375 717.986C388.111 680.59 405.508 571.908 452.287 566.065C501.772 559.832 517.236 604.24 519.942 615.147C553.19 593.722 541.205 548.146 537.339 505.686C563.242 493.999 585.278 465.952 596.876 440.632C609.634 458.551 625.098 472.574 643.655 474.133C663.371 476.08 674.969 459.33 678.835 435.568C704.351 469.458 749.584 511.529 820.718 519.709C854.739 523.604 882.961 509.191 901.904 485.429C906.93 486.208 911.569 486.598 916.209 486.208C966.08 481.144 1021.75 379.474 906.544 335.455Z" fill="black"/>
<path d="M791.044 760.457C791.469 767.255 786.371 779.15 777.024 787.647C729.018 758.333 707.351 773.627 707.351 773.627C690.358 747.712 694.181 712.451 735.39 739.215C763.854 757.908 781.697 760.882 791.044 760.457Z" fill="black"/>
<path d="M776.599 788.072C766.403 796.993 751.109 802.516 730.292 794.019C720.521 790.196 712.874 782.549 706.926 774.052C707.351 774.052 728.593 758.758 776.599 788.072Z" fill="white"/>
<path d="M799.116 759.183C799.116 759.183 781.273 768.954 735.39 739.64C680.586 704.379 691.632 778.3 730.292 794.019C770.652 810.588 791.469 774.477 791.044 760.882" stroke="black" stroke-width="3" stroke-miterlimit="10" stroke-linecap="round" stroke-linejoin="round"/>
<path d="M707.353 774.052C707.353 774.052 729.02 758.758 777.026 788.072" stroke="black" stroke-width="3" stroke-miterlimit="10" stroke-linecap="round" stroke-linejoin="round"/>
<path d="M474.276 632.996C474.276 632.996 438.852 628.251 441.509 672.539C442.837 695.078 442.837 707.336 442.394 713.663C441.951 718.013 445.051 721.967 449.479 723.549C454.793 725.526 460.549 723.549 463.206 718.804C467.192 712.477 471.62 703.777 471.62 696.66C471.62 684.797 485.79 674.121 485.79 674.121C485.79 674.121 472.948 664.235 474.276 632.996Z" fill="white"/>
<path d="M472.948 634.183C472.948 634.578 473.391 634.974 473.834 634.974C473.834 634.974 473.834 634.974 473.391 634.974H472.505C451.25 636.555 444.608 653.163 445.494 670.167C445.937 681.238 446.822 692.31 446.379 702.987C447.265 708.918 443.28 716.827 449.922 719.99C453.907 721.967 459.221 720.386 460.992 716.431C464.977 709.314 468.963 702.196 468.963 694.287C470.734 685.193 477.376 678.075 484.461 672.539V675.703C475.162 667.003 472.948 655.14 471.62 644.069C472.062 641.301 472.062 636.951 472.948 634.183ZM476.048 631.415C477.376 642.487 477.376 653.954 482.69 663.84C484.018 666.608 486.232 669.771 488.889 671.748C490.66 672.935 490.66 675.307 488.889 676.493C482.69 681.634 477.376 687.961 476.491 695.078C476.491 703.778 472.505 712.082 468.077 719.595C464.535 726.317 454.35 729.876 446.822 725.921C441.951 723.549 438.409 718.804 438.409 713.663C438.409 709.709 438.852 706.546 438.852 702.591C438.852 691.52 437.966 680.843 437.523 669.771C437.523 662.654 437.966 654.35 441.508 647.232C445.937 636.16 459.664 628.647 472.948 630.624C474.276 630.624 475.605 631.02 476.048 631.415Z" fill="#01C0FD"/>
<path d="M468.52 1101.18C483.133 1044.24 464.092 980.18 447.708 923.238C441.066 900.699 434.423 879.346 431.324 860.761C425.567 829.523 429.553 799.866 443.723 772.186C460.992 737.784 458.335 708.523 458.335 707.336L449.479 708.127C449.479 708.523 452.136 736.993 435.752 769.023C421.139 797.889 416.711 829.127 422.468 861.948C426.01 880.928 432.209 902.676 438.852 925.216C455.236 980.97 473.834 1044.24 459.664 1099.2C451.693 1129.65 467.191 1179.47 489.332 1229.3C492.874 1229.69 495.974 1230.09 499.517 1230.48C476.933 1180.66 460.992 1130.44 468.52 1101.18Z" fill="#01C0FD"/>
<path d="M442.837 695.474C443.28 704.173 442.837 710.105 442.837 713.664C442.394 718.013 445.494 721.968 449.922 723.549C455.235 725.526 460.992 723.549 463.649 718.804C467.634 712.477 472.062 703.778 472.062 696.66C472.062 696.265 472.062 695.474 472.062 695.079C463.206 698.242 452.579 700.615 442.837 695.474Z" fill="white"/>
<path d="M444.165 697.056C444.608 702.592 445.051 707.732 445.051 713.268C444.608 715.641 445.494 718.013 447.265 719.99C453.021 725.131 460.992 721.967 463.206 715.641C466.749 709.314 469.848 702.592 469.848 695.474L472.948 697.451C463.206 699.033 453.021 701.405 443.722 697.847C443.722 697.847 444.165 697.451 444.165 697.056ZM441.951 693.497C442.837 693.497 444.608 693.892 445.494 694.683C453.464 699.824 463.649 697.451 471.619 693.497C472.948 692.706 475.162 693.892 474.719 695.474C474.276 704.569 470.291 713.268 464.977 721.177C460.106 727.108 449.922 727.503 444.165 722.363C441.508 719.99 440.18 716.036 440.623 712.873C440.623 706.15 441.508 699.824 441.951 693.497Z" fill="#01C0FD"/>
<path d="M859.964 958.431C867.492 911.771 860.407 878.556 857.75 868.67C856.422 869.461 855.536 870.647 854.208 871.438C852.879 872.624 851.551 873.415 850.223 874.601C852.879 887.255 857.75 917.307 851.108 957.245C848.008 975.83 847.123 1005.09 846.68 1039.1C845.794 1071.92 834.281 1153.77 820.554 1231.27C823.654 1230.48 826.754 1229.69 829.853 1229.3C843.58 1152.58 854.651 1072.31 855.536 1039.49C856.422 1005.49 856.865 976.621 859.964 958.431Z" fill="#01C0FD"/>
<path d="M750.39 549.859C759.018 550.768 765.685 543.8 762.547 537.136C760.979 533.5 758.234 530.168 753.92 528.047C740.587 521.686 690.783 521.08 664.508 535.621C640.979 548.95 711.175 545.618 750.39 549.859Z" fill="black"/>
<path d="M859.018 553.192C851.959 553.192 847.645 546.224 851.175 540.468C853.135 537.439 855.881 534.712 859.802 533.197C871.959 528.653 904.508 531.38 919.018 546.83C931.959 560.462 891.567 552.889 859.018 553.192Z" fill="black"/>
<path d="M737.451 589.847C723.726 599.238 702.549 599.238 686.079 594.391C683.333 593.482 667.647 588.029 670.784 585C671.177 584.697 671.961 584.394 672.353 584.394C683.333 584.697 693.529 585.606 704.118 586.212C714.706 586.818 724.118 586.515 735.098 586.212C737.843 586.212 739.412 588.635 737.451 589.847Z" fill="black"/>
<path d="M892.351 594.998C879.802 606.206 854.312 604.692 842.547 593.786C841.371 592.877 842.547 591.059 844.116 591.362C848.43 591.665 852.351 592.271 856.273 592.574C868.037 594.089 877.841 593.786 890.39 593.483C892.351 592.877 893.135 594.392 892.351 594.998Z" fill="black"/>
</g>
</svg>
