<svg width="1300" height="1300" viewBox="0 0 1300 1300" fill="none" xmlns="http://www.w3.org/2000/svg">
<g filter="url(#filter0_b_26_635)">
<path d="M650 1300C290.71 1300 0 1008.86 0 650C0 290.71 291.141 0 650 0C1009.29 0 1300 291.141 1300 650C1300.43 1009.29 1009.29 1300 650 1300Z" fill="#F4DA92"/>
<path d="M1296 650V650.005C1296.43 1007.08 1007.09 1296 650 1296C292.921 1296 4 1006.65 4 650C4 292.921 293.349 4 650 4C1007.08 4 1296 293.349 1296 650Z" stroke="black" stroke-width="8"/>
</g>
<mask id="mask0_26_635" style="mask-type:alpha" maskUnits="userSpaceOnUse" x="0" y="0" width="1301" height="1300">
<path d="M650 1300C290.71 1300 0 1008.86 0 650C0 290.71 291.141 0 650 0C1009.29 0 1300 291.141 1300 650C1300.43 1009.29 1009.29 1300 650 1300Z" fill="#F7C0B5"/>
</mask>
<g mask="url(#mask0_26_635)">
<path d="M1012.27 1197.33C1009.23 1199.5 1005.77 1201.66 1002.73 1203.83C999.265 1206 996.232 1208.16 992.765 1209.9C989.732 1211.63 987.132 1213.36 984.099 1215.1C983.665 1215.53 983.232 1215.53 982.799 1215.96C972.832 1222.03 962.432 1227.66 952.032 1232.86C948.999 1234.6 945.532 1236.33 942.499 1237.63C942.499 1237.63 942.065 1238.06 941.632 1238.06C938.165 1239.8 934.699 1241.53 931.232 1243.26C924.299 1246.73 916.932 1249.76 909.999 1252.8C906.532 1254.53 902.632 1255.83 899.165 1257.13C895.699 1258.43 891.799 1260.16 888.332 1261.46C884.865 1262.76 880.965 1264.5 877.499 1265.8C877.499 1265.8 877.499 1265.8 877.065 1265.8C873.599 1267.1 869.699 1268.4 866.232 1269.7C858.432 1272.3 850.199 1274.9 842.399 1277.5C839.799 1278.36 836.765 1279.23 834.165 1280.1C825.932 1282.7 817.699 1284.86 809.465 1286.6C806.432 1287.46 803.399 1287.9 799.932 1288.76C792.132 1290.5 783.899 1292.23 776.099 1293.96C774.365 1294.4 773.065 1294.4 771.332 1294.83C768.732 1295.26 765.699 1295.7 763.099 1296.13C759.199 1296.56 755.732 1297.43 751.832 1297.86C750.099 1298.3 748.365 1298.3 746.632 1298.73C744.465 1299.16 741.865 1299.6 739.265 1299.6C732.332 1300.46 724.965 1301.33 718.032 1302.2C715.865 1302.63 713.265 1302.63 711.099 1303.06H710.665C707.632 1303.5 704.599 1303.5 701.565 1303.93C698.532 1304.36 695.499 1304.36 692.465 1304.36C690.732 1304.36 688.565 1304.8 686.832 1304.8C683.365 1304.8 680.332 1305.23 677.299 1305.23C672.965 1305.23 669.065 1305.66 664.732 1305.66C660.399 1305.66 656.499 1305.66 652.165 1305.66C649.132 1305.66 646.099 1305.66 643.065 1305.66C460.632 1303.06 295.965 1225.5 178.965 1102.43C178.965 1102.43 178.965 1102 178.532 1102C191.965 1075.56 241.799 1027.9 293.799 988.465C359.665 938.632 452.832 907.865 452.832 907.865C452.832 907.865 513.932 897.898 740.565 945.132C913.465 981.532 987.132 1129.3 1012.27 1197.33Z" fill="#C99589"/>
<path d="M788.665 1065.16C779.565 1109.8 720.632 1136.23 621.399 1096.36C499.632 1046.96 452.832 907.865 452.832 907.865C446.332 808.198 431.166 722.832 431.166 722.832C571.999 710.698 738.399 875.365 738.399 875.365L757.466 956.832C759.199 963.765 762.665 969.832 767.865 974.165C776.965 989.765 794.732 1036.56 788.665 1065.16Z" fill="#C99589"/>
<path d="M767.865 974.599C685.098 970.265 623.998 958.132 558.565 840.699C614.032 889.665 679.465 908.299 748.365 916.965L757.465 956.832C759.198 964.199 762.665 970.265 767.865 974.599Z" fill="#A56663"/>
<path d="M939.032 452.432C946.832 488.832 950.732 518.298 929.499 615.365C908.265 712.432 948.998 809.498 846.732 898.332C777.832 958.132 657.365 969.398 561.165 903.965C528.665 881.865 498.765 851.098 474.499 810.798C455.432 779.165 433.332 749.265 408.632 721.965C374.399 684.698 333.232 609.732 353.599 477.132C386.532 261.332 600.165 236.632 726.265 260.465C852.365 284.298 917.799 356.232 939.032 452.432Z" fill="#C99589"/>
<path d="M524.332 621.865C524.332 621.865 510.898 556.865 447.632 564.665C393.032 571.598 373.965 702.465 497.898 738.865" fill="#C99589"/>
<path d="M493.999 679.498C493.999 679.498 478.399 669.532 480.132 652.198C482.732 631.832 480.132 619.265 470.599 615.365C446.766 605.398 441.999 633.132 442.866 636.598" stroke="#423232" stroke-width="13" stroke-miterlimit="10" stroke-linecap="round" stroke-linejoin="round"/>
<path d="M824.631 721.532C824.631 721.532 841.098 722.398 856.698 703.765C865.365 693.365 872.731 680.365 867.965 676.465C863.198 672.132 784.765 684.265 779.565 694.665C774.365 705.065 804.698 721.532 824.631 721.532Z" fill="#A56663"/>
<path d="M837.632 575.932C837.632 575.932 838.499 617.098 864.932 663.032C876.632 683.398 858.865 716.765 820.299 722.398" stroke="#423232" stroke-width="13" stroke-miterlimit="10" stroke-linecap="round" stroke-linejoin="round"/>
<path d="M1057.78 1116.61C996.25 1037.31 900.917 1004.37 848.483 984.873C844.15 963.206 835.917 939.373 822.917 916.406C802.984 928.54 780.017 937.64 756.184 942.406L759.65 956.706C761.383 963.64 770.05 995.706 756.617 1036.87C745.35 1071.54 699.85 1087.14 622.717 1052.04C472.35 984.006 455.017 907.306 455.017 907.306C452.417 865.706 448.084 826.706 444.184 795.073C397.384 805.473 343.217 826.706 313.75 871.34C277.35 925.94 263.917 981.406 267.384 1025.61C204.117 1065.91 106.184 1127.01 74.1168 1236.21C32.5168 1378.34 39.4502 1465.44 39.4502 1465.44H1159.18C1157.88 1465.87 1141.42 1224.51 1057.78 1116.61Z" fill="#BEE3EB"/>
<path d="M388.283 974.473C388.283 974.473 414.716 1077.17 530.416 1148.24" stroke="white" stroke-width="13" stroke-miterlimit="10" stroke-linecap="round" stroke-linejoin="round"/>
<path d="M848.05 984.873C848.05 984.873 878.817 1117.91 811.65 1179.01" stroke="white" stroke-width="13" stroke-miterlimit="10" stroke-linecap="round" stroke-linejoin="round"/>
<path d="M639.183 1158.64C639.183 1158.64 616.65 1224.51 622.717 1270.01" stroke="white" stroke-width="13" stroke-miterlimit="10" stroke-linecap="round" stroke-linejoin="round"/>
<path d="M777.417 1154.74C777.417 1154.74 794.318 1191.57 806.451 1250.07" stroke="white" stroke-width="13" stroke-miterlimit="10" stroke-linecap="round" stroke-linejoin="round"/>
<path d="M266.517 1026.04C266.517 1026.04 302.05 1170.77 513.517 1213.24" stroke="white" stroke-width="13" stroke-miterlimit="10" stroke-linecap="round" stroke-linejoin="round"/>
<path d="M626.617 1279.97L607.55 1278.24C600.617 1277.37 595.417 1270.87 596.717 1263.94L603.217 1231.44C604.95 1222.34 613.617 1215.84 622.717 1217.14C631.817 1218.01 639.183 1225.81 639.183 1235.34L639.617 1268.71C639.617 1275.21 633.55 1280.84 626.617 1279.97Z" fill="white"/>
<path d="M825.517 1260.04L807.317 1266.54C800.384 1269.14 793.017 1264.81 791.717 1257.87L783.917 1225.81C781.75 1216.71 786.517 1207.61 795.617 1204.14C804.284 1201.11 814.25 1205.01 818.15 1213.24L832.45 1243.14C835.484 1249.64 832.45 1257.44 825.517 1260.04Z" fill="white"/>
<path d="M1016.62 1250.07C1016.62 1250.07 1040.88 1386.14 1031.35 1465.87" stroke="#544D4D" stroke-width="13" stroke-miterlimit="10" stroke-linecap="round" stroke-linejoin="round"/>
<path d="M743.042 526.549C752.576 527.849 759.942 517.882 756.476 508.349C754.742 503.149 751.709 498.382 746.942 495.349C732.209 486.249 677.176 485.382 648.142 506.182C622.576 525.249 699.709 520.482 743.042 526.549Z" fill="#423232"/>
<path d="M863.074 531.316C855.274 531.316 850.508 521.349 854.408 513.116C856.574 508.782 859.608 504.882 863.941 502.716C877.374 496.216 913.341 500.116 929.374 522.216C943.674 541.716 899.041 530.882 863.074 531.316Z" fill="#423232"/>
<path d="M727.875 581.149C694.075 595.449 656.375 577.682 656.375 577.682" stroke="#423232" stroke-width="13" stroke-miterlimit="10" stroke-linecap="round" stroke-linejoin="round"/>
<path d="M899.042 589.816C899.042 589.816 875.642 604.116 846.175 587.216" stroke="#423232" stroke-width="13" stroke-miterlimit="10" stroke-linecap="round" stroke-linejoin="round"/>
<path d="M800.016 771.848C800.45 778.781 795.25 790.915 785.716 799.581C736.75 769.681 714.65 785.281 714.65 785.281C697.316 758.848 701.216 722.881 743.25 750.181C772.716 768.815 790.483 771.848 800.016 771.848Z" fill="#423232"/>
<path d="M785.717 799.581C775.317 808.681 759.717 814.315 738.483 805.648C728.517 801.748 720.717 793.948 714.65 785.281C714.65 785.281 736.75 769.681 785.717 799.581Z" fill="#FE9DAB"/>
<path d="M808.25 770.115C808.25 770.115 790.05 780.081 743.25 750.181C687.35 714.215 698.617 789.615 738.05 805.648C779.217 822.548 800.45 785.715 800.017 771.848" stroke="#423232" stroke-width="13" stroke-miterlimit="10" stroke-linecap="round" stroke-linejoin="round"/>
<path d="M714.65 785.281C714.65 785.281 736.75 769.681 785.717 799.581" stroke="#423232" stroke-width="13" stroke-miterlimit="10" stroke-linecap="round" stroke-linejoin="round"/>
<path d="M971.541 366.632C940.774 477.999 852.807 455.899 767.874 429.032C468.441 334.132 520.007 624.032 516.107 618.832C506.574 600.632 486.207 578.099 447.641 582.865C397.374 589.365 377.007 700.732 471.041 746.665C468.874 766.599 454.574 783.499 438.107 795.632C393.907 758.365 325.441 686.432 299.874 582.432C290.341 544.299 294.241 512.665 298.141 487.965C310.707 411.265 358.374 395.232 358.374 395.232C360.107 314.199 444.607 224.932 586.741 227.965C729.307 230.132 1002.31 255.265 971.541 366.632Z" fill="#423232"/>
<path d="M975.007 500.532C970.674 528.699 958.54 550.365 941.64 566.399C948.14 519.165 944.674 496.632 939.04 470.199C926.907 416.032 900.907 369.232 857.574 334.565C879.24 332.832 901.34 337.599 921.274 350.165C921.274 350.165 949.874 370.099 960.707 434.232C964.174 452.865 978.907 472.799 975.007 500.532Z" fill="#423232"/>
<path d="M621.407 228.399C621.407 228.399 786.074 164.265 844.141 185.499C892.241 203.265 874.907 252.665 874.907 252.665C874.907 252.665 957.241 231.865 1001.87 285.599C1046.51 339.332 994.941 409.099 965.474 434.665C965.474 434.665 1011.84 446.799 1007.07 486.232C1001.44 535.632 941.207 565.965 941.207 565.965C941.207 565.965 962.007 523.499 958.974 482.765C955.941 442.032 960.707 412.999 930.807 383.532C900.907 353.632 829.841 381.799 753.141 343.665C676.874 305.532 621.407 228.399 621.407 228.399Z" fill="#423232"/>
<path d="M477.159 636.126C477.159 636.126 442.492 630.926 445.092 679.459C446.392 704.159 446.392 717.593 445.959 724.526C445.525 729.293 448.559 733.626 452.892 735.359C458.092 737.526 463.725 735.359 466.325 730.159C470.225 723.226 474.559 713.693 474.559 705.893C474.559 692.893 488.425 681.193 488.425 681.193C488.425 681.193 475.859 670.359 477.159 636.126Z" fill="white"/>
<path d="M582.025 1471.59C578.558 1467.69 442.492 1234.99 462.858 1147.46C476.725 1087.23 458.525 1017.89 442.492 956.793C435.992 931.659 429.925 908.259 426.458 887.459C420.392 851.493 424.725 817.259 439.458 785.626C455.492 750.093 452.892 719.326 452.892 718.893L461.558 718.026C461.558 719.326 464.158 751.826 447.258 789.093C433.392 818.993 429.492 851.926 435.125 886.159C438.592 906.526 444.658 929.926 451.158 955.059C467.625 1017.03 485.825 1087.66 471.525 1150.06C452.458 1233.26 588.092 1465.96 588.958 1466.83L582.025 1471.59Z" fill="white"/>
<path d="M446.392 704.593C446.826 714.126 446.392 720.626 446.392 724.526C445.959 729.292 448.992 733.626 453.326 735.359C458.526 737.526 464.159 735.359 466.759 730.159C470.659 723.226 474.992 713.692 474.992 705.892C474.992 705.459 474.992 704.592 474.992 704.159C465.892 707.626 455.492 710.226 446.392 704.593Z" fill="#E5E5E5"/>
<path d="M854.159 992.759C851.125 1012.69 850.692 1044.33 849.825 1081.16C848.525 1152.23 806.492 1429.13 786.125 1472.89L778.325 1469.43C797.825 1426.96 839.859 1151.36 841.159 1081.16C842.025 1044.33 842.459 1012.26 845.492 991.459C851.992 947.693 847.225 914.759 844.625 900.893C845.925 899.593 847.225 898.726 848.525 897.426C849.825 896.559 850.692 895.259 851.992 894.393C854.592 905.659 861.959 941.626 854.159 992.759Z" fill="white"/>
</g>
<defs>
<filter id="filter0_b_26_635" x="-4" y="-4" width="1308" height="1308" filterUnits="userSpaceOnUse" color-interpolation-filters="sRGB">
<feFlood flood-opacity="0" result="BackgroundImageFix"/>
<feGaussianBlur in="BackgroundImageFix" stdDeviation="2"/>
<feComposite in2="SourceAlpha" operator="in" result="effect1_backgroundBlur_26_635"/>
<feBlend mode="normal" in="SourceGraphic" in2="effect1_backgroundBlur_26_635" result="shape"/>
</filter>
</defs>
</svg>
