<?xml version="1.0" standalone="no"?>
<!DOCTYPE svg PUBLIC "-//W3C//DTD SVG 20010904//EN"
 "http://www.w3.org/TR/2001/REC-SVG-20010904/DTD/svg10.dtd">
<svg version="1.0" xmlns="http://www.w3.org/2000/svg"
 width="500.000000pt" height="500.000000pt" viewBox="0 0 500.000000 500.000000"
 preserveAspectRatio="xMidYMid meet">
<metadata>
Created by potrace 1.14, written by Peter Selinger 2001-2017
</metadata>
<g transform="translate(0.000000,500.000000) scale(0.100000,-0.100000)"
fill="#000000" stroke="none">
<path d="M1828 4582 c-13 -3 -26 -30 -33 -72 -4 -26 -25 -36 -75 -35 l-55 0
-17 -50 -16 -50 -59 -3 c-62 -3 -71 -8 -78 -38 -2 -10 -24 -77 -48 -149 -24
-71 -86 -258 -136 -415 -51 -157 -96 -294 -102 -305 -5 -11 -10 -29 -12 -40
-1 -11 -5 -24 -8 -30 -5 -7 -125 -372 -134 -405 -1 -3 -4 -12 -7 -20 -3 -8
-33 -98 -66 -200 -33 -102 -95 -291 -137 -420 -42 -129 -78 -242 -80 -250 -2
-8 -11 -32 -19 -52 -9 -21 -16 -41 -16 -45 0 -5 -32 -105 -71 -223 -39 -118
-72 -219 -73 -225 -2 -5 -6 -17 -9 -25 -3 -8 -35 -105 -71 -215 -36 -110 -84
-258 -108 -330 -23 -71 -43 -132 -43 -135 0 -3 -16 -49 -34 -103 -18 -54 -31
-103 -28 -110 3 -9 89 -12 358 -11 l353 0 16 55 16 54 64 5 63 5 15 45 c8 25
17 47 19 50 2 2 28 3 57 2 47 -1 56 1 70 23 9 14 14 25 12 25 -3 0 6 31 19 69
13 38 21 72 18 75 -3 3 -1 11 4 18 6 7 20 46 32 87 11 41 24 78 28 82 11 11
185 16 200 6 7 -4 10 -13 8 -20 -2 -7 -6 -28 -9 -47 -3 -19 -12 -82 -20 -140
-9 -58 -18 -121 -20 -140 -3 -19 -7 -48 -10 -65 -3 -16 -8 -50 -11 -75 -4 -25
-9 -60 -11 -77 -5 -30 -3 -33 23 -34 83 -4 651 -4 665 -1 12 3 19 19 24 58 l6
55 52 -2 c28 -1 57 -1 64 0 14 1 31 40 34 77 2 17 9 24 23 25 11 0 35 1 53 2
39 2 39 -1 11 -113 -11 -45 -18 -88 -16 -94 3 -8 207 -11 748 -10 409 1 750 2
757 3 6 0 12 8 12 17 0 9 5 34 12 56 9 30 16 39 32 37 12 0 40 -1 62 0 43 1
48 6 61 75 5 29 7 29 73 28 57 0 62 1 72 26 5 15 11 36 13 47 1 11 3 20 4 20
1 0 4 12 6 26 2 14 9 45 15 70 7 24 14 52 16 62 2 10 5 26 8 35 3 9 8 33 12
52 3 19 7 40 8 45 1 6 8 37 15 70 7 33 16 67 19 75 6 18 8 26 17 71 l7 35
-375 1 c-206 0 -380 3 -386 7 -7 5 -7 15 -1 31 5 14 7 25 5 25 -2 0 0 12 6 28
6 15 12 38 14 52 2 14 13 63 25 109 12 47 23 96 26 110 2 14 13 62 24 106 11
44 22 91 25 105 7 36 12 59 25 115 6 28 14 61 16 75 3 14 9 36 14 50 4 14 12
43 16 65 4 22 8 42 9 45 3 11 15 67 19 90 3 14 10 45 16 70 13 55 44 186 61
260 7 30 14 57 14 60 1 3 5 23 9 45 4 22 12 54 17 71 5 17 11 40 13 50 3 10 9
39 15 64 5 25 12 56 15 70 2 14 27 122 55 240 27 118 52 226 55 240 3 14 14
61 24 105 11 44 23 98 27 120 5 22 9 45 11 50 9 33 23 91 30 129 2 16 7 32 9
36 2 4 7 22 10 41 3 19 15 70 25 114 11 44 22 95 25 114 3 19 8 37 10 41 2 4
7 20 10 36 3 16 11 53 19 82 8 28 11 53 8 53 -4 1 -169 2 -366 3 -278 1 -362
-1 -372 -11 -6 -7 -15 -31 -19 -53 -7 -43 -7 -43 -75 -41 -25 0 -50 -2 -57 -7
-11 -7 -24 -54 -26 -89 0 -15 -2 -15 -79 -13 -61 1 -63 -1 -73 -66 -3 -16 -22
-103 -44 -194 -22 -91 -42 -176 -44 -190 -3 -14 -24 -106 -47 -205 -23 -99
-43 -191 -45 -205 -2 -14 -4 -26 -6 -27 -1 -2 -2 -6 -3 -10 -1 -5 -14 -60 -30
-123 -40 -168 -58 -242 -63 -270 -2 -14 -10 -50 -18 -80 -8 -30 -21 -89 -30
-130 -9 -41 -18 -82 -20 -90 -1 -8 -15 -64 -29 -125 -15 -60 -28 -119 -31
-130 -4 -21 -26 -110 -72 -300 -14 -60 -27 -117 -28 -125 -1 -8 -4 -24 -8 -35
-3 -11 -8 -31 -11 -45 -3 -14 -25 -113 -51 -220 -25 -107 -48 -204 -50 -215
-25 -114 -40 -177 -51 -215 l-13 -45 5 71 c2 39 7 82 10 95 2 13 7 48 9 78 3
30 7 61 9 70 3 9 7 35 10 59 4 23 9 61 12 84 3 23 7 64 9 92 3 28 6 60 9 72 2
12 7 45 11 75 4 30 9 65 11 79 2 14 6 43 8 65 3 22 8 58 12 80 4 22 8 51 9 65
1 14 5 43 9 65 3 22 8 58 11 80 3 22 7 51 10 64 2 13 7 56 11 95 3 39 8 74 10
77 1 3 6 28 9 55 6 53 10 82 26 189 5 39 12 90 15 115 2 25 6 56 9 70 3 14 8
50 11 80 3 30 7 66 9 80 2 14 7 48 10 75 4 28 8 57 10 65 2 8 7 42 11 75 3 33
8 62 9 65 2 3 6 33 10 65 4 33 8 71 10 85 3 14 7 48 11 75 8 65 11 90 19 145
10 77 13 99 19 137 3 21 8 62 12 92 3 30 7 62 9 71 2 9 6 41 10 71 3 30 8 65
10 79 2 14 7 48 11 75 3 28 8 61 10 75 8 59 49 55 -619 55 -337 0 -620 -1
-629 -3z m-43 -2329 c-3 -32 -7 -67 -9 -78 -2 -11 -7 -42 -11 -70 -7 -54 -17
-65 -45 -58 -19 5 -19 18 -1 66 6 15 9 27 6 27 -2 0 3 16 11 35 8 19 11 35 7
35 -4 0 -2 5 5 12 7 7 12 20 12 31 0 19 17 57 26 57 3 0 2 -26 -1 -57z"/>
</g>
</svg>
