<?xml version="1.0" standalone="no"?>
<!DOCTYPE svg PUBLIC "-//W3C//DTD SVG 20010904//EN"
 "http://www.w3.org/TR/2001/REC-SVG-20010904/DTD/svg10.dtd">
<svg version="1.0" xmlns="http://www.w3.org/2000/svg"
 width="700.000000pt" height="700.000000pt" viewBox="0 0 700.000000 700.000000"
 preserveAspectRatio="xMidYMid meet">
<metadata>
Created by potrace 1.14, written by Peter Selinger 2001-2017
</metadata>
<g transform="translate(0.000000,700.000000) scale(0.100000,-0.100000)"
fill="#000000" stroke="none">
<path d="M1720 6258 c-57 -101 -148 -262 -203 -358 -55 -96 -109 -193 -122
-215 -12 -22 -82 -146 -155 -275 -74 -129 -143 -251 -154 -272 -62 -109 -203
-356 -213 -373 -7 -11 -18 -31 -25 -45 -7 -14 -31 -56 -54 -95 -23 -38 -94
-164 -159 -280 -64 -115 -126 -222 -136 -237 -11 -15 -19 -30 -19 -33 0 -3
-18 -35 -40 -71 -22 -36 -40 -68 -40 -70 0 -2 -20 -38 -45 -80 -25 -41 -45
-77 -45 -79 0 -2 -20 -38 -45 -79 -25 -42 -45 -79 -45 -81 0 -2 -14 -26 -30
-52 -17 -26 -30 -53 -30 -60 0 -11 68 -135 148 -273 11 -19 29 -51 40 -70 17
-32 188 -331 585 -1030 324 -570 443 -779 482 -850 23 -41 52 -91 64 -110 11
-19 24 -42 28 -50 7 -15 169 -300 198 -350 8 -14 38 -67 66 -117 l52 -93 1676
0 1676 0 122 213 c101 178 412 726 480 847 11 19 58 103 105 185 47 83 94 166
105 185 11 19 76 134 145 255 69 121 221 389 338 595 117 206 241 425 275 485
35 61 71 126 80 146 l18 37 -35 58 c-35 58 -399 699 -453 799 -15 28 -31 55
-35 60 -4 6 -18 28 -30 50 -45 80 -330 583 -399 703 -39 68 -71 125 -71 127 0
2 -14 28 -31 57 -27 46 -191 333 -267 468 -14 25 -88 155 -165 290 -77 135
-149 262 -159 283 l-20 37 -1677 0 -1677 0 -104 -182z m2525 -528 c40 -6 40
-6 14 -17 -33 -14 -385 -139 -419 -148 -14 -4 -38 -13 -55 -20 -16 -7 -79 -29
-140 -50 -60 -20 -119 -40 -130 -45 -11 -5 -148 -52 -305 -105 l-285 -95 -134
137 c-195 201 -321 336 -321 344 0 9 1718 7 1775 -1z m688 -287 c35 -60 75
-128 89 -153 14 -25 91 -161 172 -304 80 -142 146 -264 146 -270 0 -7 -23 -36
-51 -66 -96 -103 -464 -484 -674 -698 -115 -118 -213 -219 -217 -225 -4 -7
-42 24 -100 84 -134 138 -385 406 -517 551 l-43 47 54 57 c29 32 64 69 78 84
25 27 290 305 475 499 250 262 492 501 508 501 10 0 40 -39 80 -107z m-2837
-209 c1 -128 -1 -245 -3 -258 -4 -20 -22 -30 -121 -66 -65 -23 -146 -53 -181
-66 -36 -13 -66 -22 -68 -20 -3 2 67 129 153 282 87 154 169 300 183 326 14
26 28 44 31 42 2 -3 5 -111 6 -240z m2143 129 c-18 -21 -64 -69 -101 -108 -36
-38 -90 -95 -118 -125 -184 -194 -484 -500 -491 -500 -12 0 -226 217 -301 303
-33 38 -57 74 -55 80 2 6 57 29 123 52 197 68 278 97 299 105 11 5 110 40 220
79 110 38 252 88 315 110 63 22 122 40 129 40 9 1 1 -14 -20 -36z m-1673 -169
c19 -23 34 -46 34 -52 0 -5 -35 -24 -77 -40 -116 -44 -124 -46 -133 -31 -5 7
-9 82 -9 168 l-1 156 76 -80 c42 -44 91 -98 110 -121z m433 -452 c139 -140
230 -235 299 -313 l23 -26 -68 -73 c-78 -84 -125 -133 -387 -404 -104 -108
-192 -196 -196 -196 -5 0 -71 63 -149 141 l-141 141 0 363 c0 227 4 366 10
370 5 3 60 24 122 45 62 22 158 55 213 75 55 19 104 35 109 35 4 0 78 -71 165
-158z m-899 -269 l0 -168 -111 112 c-119 120 -127 137 -74 162 38 18 156 60
173 60 9 1 12 -39 12 -166z m-462 -112 c65 -65 195 -198 290 -295 l172 -177 0
-384 0 -384 -37 -39 c-21 -21 -128 -132 -238 -247 -110 -114 -223 -232 -252
-261 l-52 -54 -39 67 c-41 71 -356 624 -400 703 -14 25 -47 82 -72 127 l-47
81 93 164 c51 89 97 170 100 178 4 8 35 65 70 125 34 61 74 130 88 155 14 25
65 116 113 202 48 87 90 158 91 158 2 0 56 -53 120 -119z m3987 -133 c26 -46
61 -108 78 -138 16 -30 33 -59 37 -65 4 -5 21 -35 37 -65 17 -30 67 -120 113
-200 46 -80 97 -171 114 -202 l31 -57 -20 -38 c-16 -31 -199 -354 -324 -574
-14 -25 -60 -104 -101 -177 -51 -89 -81 -132 -92 -132 -19 0 -167 141 -210
200 l-26 35 23 115 c13 63 26 129 29 145 3 17 8 44 11 60 22 115 65 336 70
365 3 19 12 67 20 105 8 39 17 86 20 105 3 19 10 53 15 75 5 22 12 55 15 74 3
19 20 103 37 185 16 83 31 160 33 171 7 47 27 105 34 100 5 -2 30 -42 56 -87z
m-1977 -160 c61 -62 139 -142 172 -178 34 -36 128 -134 208 -218 81 -85 148
-158 150 -163 5 -12 -120 -146 -458 -491 l-185 -190 -139 144 c-76 79 -224
230 -327 335 -104 106 -189 196 -189 201 0 15 635 672 650 672 3 0 56 -51 118
-112z m1568 45 c-3 -10 -7 -36 -11 -58 -3 -22 -12 -74 -20 -115 -21 -109 -25
-132 -31 -165 -5 -24 -60 -305 -80 -400 -2 -11 -7 -36 -10 -55 -3 -19 -10 -48
-14 -65 -5 -16 -11 -43 -13 -60 -3 -16 -7 -37 -10 -45 -3 -8 -8 -28 -12 -45
-7 -30 -10 -27 -216 185 l-209 215 64 65 c277 285 551 560 558 560 5 0 7 -8 4
-17z m-2766 -598 c0 -12 -16 -36 -35 -55 l-35 -34 0 89 0 89 35 -34 c19 -19
35 -43 35 -55z m320 -316 c3 -4 129 -133 280 -288 151 -155 276 -286 278 -291
2 -4 -16 -29 -39 -54 l-43 -46 -433 0 -433 0 0 240 0 241 146 146 146 146 46
-44 c26 -24 49 -47 52 -50z m1770 -62 c76 -78 162 -167 190 -197 28 -30 89
-94 136 -141 46 -47 82 -88 80 -90 -2 -2 -7 -24 -10 -49 -3 -25 -9 -58 -12
-75 -3 -16 -7 -37 -8 -45 -3 -13 -71 -15 -538 -18 l-535 -2 -48 51 -47 51 43
46 c433 459 592 621 601 616 5 -3 72 -70 148 -147z m-2440 -537 l0 -80 -87 0
-88 0 80 80 c44 44 83 80 87 80 5 0 8 -36 8 -80z m-1 -715 c-1 -195 -4 -355
-8 -355 -4 0 -96 156 -205 346 -145 255 -194 349 -185 355 7 4 100 8 206 9
l194 1 -2 -356z m769 248 c-58 -60 -131 -135 -162 -168 -124 -130 -309 -315
-316 -315 -5 0 -9 133 -9 295 l-2 295 297 0 297 0 -105 -107z m957 -17 c177
-182 566 -584 698 -721 63 -66 113 -122 110 -125 -10 -11 -2192 -6 -2186 4 4
6 53 58 109 116 56 58 126 130 155 161 30 31 151 157 270 280 119 123 256 266
305 317 l88 92 165 0 166 0 120 -124z m1015 114 c8 -5 10 -18 5 -40 -4 -17 -8
-41 -10 -53 -4 -27 -51 -267 -80 -408 -2 -9 -6 -34 -9 -55 -4 -21 -11 -43 -17
-49 -6 -6 -66 48 -182 166 -157 159 -325 335 -402 418 l-30 32 356 -2 c196 -1
362 -5 369 -9z m457 -32 c-13 -24 -35 -61 -47 -83 -146 -262 -191 -331 -177
-274 8 35 55 268 62 309 15 95 6 87 102 89 l86 2 -26 -43z"/>
</g>
</svg>
