<?xml version="1.0" standalone="no"?>
<!DOCTYPE svg PUBLIC "-//W3C//DTD SVG 20010904//EN"
 "http://www.w3.org/TR/2001/REC-SVG-20010904/DTD/svg10.dtd">
<svg version="1.0" xmlns="http://www.w3.org/2000/svg"
 width="500.000000pt" height="500.000000pt" viewBox="0 0 500.000000 500.000000"
 preserveAspectRatio="xMidYMid meet">
<metadata>
Created by potrace 1.14, written by Peter Selinger 2001-2017
</metadata>
<g transform="translate(0.000000,500.000000) scale(0.100000,-0.100000)"
fill="#000000" stroke="none">
<path d="M707 3550 l-597 -1050 597 -1050 596 -1050 1197 0 1197 0 596 1050
596 1050 -596 1050 -596 1050 -1197 0 -1197 0 -596 -1050z m2348 534 c-228
-83 -958 -335 -965 -332 -10 3 -330 337 -330 344 0 2 300 4 668 3 597 0 663
-2 627 -15z m599 -423 l166 -295 -28 -30 c-163 -173 -655 -680 -658 -678 -22
14 -465 485 -462 492 2 5 180 194 397 420 320 334 396 409 406 398 7 -7 87
-145 179 -307z m-2161 -121 c-5 -4 -67 -28 -139 -53 l-131 -46 136 240 136
240 3 -187 c1 -103 -1 -191 -5 -194z m1557 315 c0 -8 -522 -550 -530 -550 -4
0 -67 62 -140 137 -85 89 -127 140 -118 143 51 19 775 274 781 274 4 1 7 -1 7
-4z m-1188 -186 c-4 -3 -36 -16 -72 -29 -36 -12 -71 -25 -77 -27 -10 -4 -13
24 -13 118 l1 124 83 -90 c47 -49 81 -93 78 -96z m340 -340 c89 -94 165 -175
166 -180 4 -9 -54 -71 -352 -377 l-110 -113 -103 103 -103 103 0 261 0 262
108 38 c59 20 127 45 152 55 25 9 52 17 62 18 9 1 88 -74 180 -170z m-702
-131 l0 -122 -76 74 c-109 108 -109 103 -11 139 45 16 83 30 85 30 1 1 2 -54
2 -121z m0 -694 l0 -274 -206 -215 -207 -215 -17 27 c-9 16 -99 173 -199 350
l-183 323 198 351 199 351 208 -212 207 -212 0 -274z m2650 283 l162 -287
-182 -323 c-101 -177 -188 -328 -193 -335 -8 -10 -25 1 -74 50 -36 35 -73 75
-84 90 l-20 27 101 523 c111 575 109 564 120 552 4 -5 80 -138 170 -297z
m-1389 -42 l227 -239 -29 -36 c-16 -19 -120 -128 -231 -243 l-203 -207 -236
243 -237 243 231 242 c127 133 235 241 241 239 5 -2 112 -111 237 -242z m896
-175 c-41 -206 -76 -374 -80 -372 -4 1 -72 71 -152 154 l-146 152 98 101 c272
279 348 355 350 348 2 -5 -30 -177 -70 -383z m-1907 -51 c7 -12 1 -24 -20 -44
l-30 -29 0 64 0 63 21 -19 c11 -10 25 -26 29 -35z m400 -410 l233 -240 -34
-35 -33 -34 -308 0 -308 0 0 171 0 172 102 103 c56 57 105 104 108 104 4 0
111 -108 240 -241z m1185 36 l198 -206 -12 -69 -13 -70 -381 0 -381 0 -33 32
c-18 18 -33 36 -33 41 0 7 448 477 455 477 2 0 92 -92 200 -205z m-1835 -285
l0 -60 -62 0 -62 0 59 60 c33 33 61 60 62 60 2 0 3 -27 3 -60z m0 -522 c0
-144 -2 -259 -4 -257 -2 2 -68 117 -146 254 -78 138 -144 253 -147 258 -2 4
64 7 146 7 l151 0 0 -262z m415 47 c-114 -118 -209 -215 -211 -215 -2 0 -4 97
-4 215 l0 215 211 0 211 0 -207 -215z m1068 -132 l336 -348 -394 -3 c-217 -1
-573 -1 -789 0 l-395 3 335 348 335 347 118 0 117 0 337 -347z m483 330 c-3
-10 -21 -101 -41 -203 -19 -102 -38 -196 -41 -209 -5 -23 -8 -22 -65 35 -33
32 -133 134 -221 227 l-160 167 267 0 c249 0 266 -1 261 -17z m300 -45 c-20
-35 -60 -104 -88 -155 -29 -51 -54 -91 -55 -89 -2 1 10 69 27 151 16 81 30
150 30 152 0 1 27 3 61 3 l60 0 -35 -62z"/>
</g>
</svg>
