<svg version="1.1" id="Layer_1" xmlns="http://www.w3.org/2000/svg" xmlns:xlink="http://www.w3.org/1999/xlink" x="0px" y="0px" viewBox="0 0 1080 1080" enable-background="new 0 0 1080 1080" xml:space="preserve">
<ellipse xmlns="http://www.w3.org/2000/svg" fill="#F7F7F7" cx="564.149" cy="677.18" rx="290.043" ry="14.284"/>
<path xmlns="http://www.w3.org/2000/svg" fill="#00aef0" d="M591.468,425.591H380.064V547.67h29.324c12.933,9.545,34.23,25.197,34.306,24.813  c0.075-0.375,0.048-15.311,0.023-24.813h147.75V425.591z"/>
<rect xmlns="http://www.w3.org/2000/svg" x="400.438" y="452.499" fill="#F7F7F7" width="170.215" height="12.406"/>
<rect xmlns="http://www.w3.org/2000/svg" x="400.438" y="476.54" fill="#F7F7F7" width="170.215" height="12.406"/>
<rect xmlns="http://www.w3.org/2000/svg" x="400.438" y="500.581" fill="#F7F7F7" width="170.215" height="12.406"/>
<path xmlns="http://www.w3.org/2000/svg" fill="#00aef0" d="M761.511,476.54H550.106v122.079h29.324c12.933,9.545,34.23,25.197,34.306,24.813  c0.075-0.375,0.048-15.311,0.023-24.813h147.75V476.54z"/>
<rect xmlns="http://www.w3.org/2000/svg" x="570.48" y="503.448" fill="#F7F7F7" width="170.215" height="12.406"/>
<rect xmlns="http://www.w3.org/2000/svg" x="570.48" y="527.489" fill="#F7F7F7" width="170.215" height="12.406"/>
<polygon xmlns="http://www.w3.org/2000/svg" fill="#0E538C" points="410.255,515 410.255,515.606 402.452,525.165 398.223,528.372 392.064,525.037 391.936,524.674 "/>
<polygon xmlns="http://www.w3.org/2000/svg" fill="#0E538C" points="402.941,523.896 410.255,515 401.574,511.17 391.936,524.674 399.404,528.66 "/>
<rect xmlns="http://www.w3.org/2000/svg" x="570.48" y="551.53" fill="#F7F7F7" width="170.215" height="12.406"/>
<polygon xmlns="http://www.w3.org/2000/svg" fill="#F7F7F7" points="401.846,512.064 408.979,515.144 401.096,525.436 394.202,522.404 "/>
<circle xmlns="http://www.w3.org/2000/svg" fill="#F7F7F7" cx="396.955" cy="525.316" r="1.013"/>
<g xmlns="http://www.w3.org/2000/svg">
	<path fill="#FAB9AF" d="M359.705,659.55l0.022,6.075c0.005,1.236-0.163,2.466-0.499,3.656l-0.528,1.871   c-0.434,1.536,0.721,3.061,2.317,3.055c4.138-0.015,11.21-0.004,13.032-0.001c0.298,0,0.591-0.201,0.616-0.498   c0.154-1.774-4.969-2.961-8.828-4.455c-2.939-1.138-2.782-6.421-2.42-9.505c0.137-1.165-0.835-2.157-2.005-2.06l0,0   C360.445,657.767,359.701,658.578,359.705,659.55z"/>
	<path fill="#FAB9AF" d="M331.267,657.846l-2.093,6.95c-0.092,0.307-0.231,0.598-0.41,0.865l-1.484,2.204   c-0.942,1.399-0.264,3.31,1.349,3.802c0,0,2.992,1.052,6.076,2.066c3.157,1.037,7.128,0.17,7.128-0.663   c0-1.851-1.726-0.382-4.617-2.315c-0.969-0.648-1.969-1.326-2.86-2.025c-2.488-1.953-0.316-6.897,1.208-9.682   c0.548-1.001-0.034-2.244-1.15-2.482l-0.721-0.154C332.635,656.185,331.58,656.809,331.267,657.846z"/>
	<path fill="#0E538C" d="M352.648,576.558l22.931-1.925c0,0,2.309,16.69-3.486,46.901c-2.718,14.168-8.382,41.241-8.382,41.241   c-1.404,0.614-2.831,0.769-4.285,0.406c0,0-0.43-11.942-0.693-24.803c-0.252-12.334-0.32-25.513-1.106-29.825   C356.021,599.745,352.648,576.558,352.648,576.558z"/>
	<path fill="#0E538C" d="M357.381,576.849c2.367,12.706,7.656,31.705-2.531,49.554c-10.188,17.849-20.887,36.405-20.887,36.405   c-1.378,0.056-2.629-0.444-3.791-1.326c0,0,1.786-8.092,4.368-17.54c2.954-10.809,6.695-23.522,5.629-30.151   c-1.998-12.423-4.293-28.969-3.597-37.004C337.268,568.753,356.136,570.168,357.381,576.849z"/>
	<g>
		<g>
			<g>
				<path fill="#FAB9AF" d="M369.552,526.04c0,0,3.145-1.504,4.526-2.291c1.381-0.785,4.932-1.866,5.219-2.121      c0.286-0.257,10.527-0.888,11.149-1.423c0.621-0.535,1.224,1.255-1.43,1.837c-2.654,0.581-6.347,2.003-6.55,3.041      c-0.201,1.038,2.726,1.283,3.023,2.137c0.297,0.854-0.083,0.664-0.502,0.846c-0.42,0.184-3.483-1.513-4.83-1.031      c-1.347,0.482-3.406-0.185-4.439,0.168c-1.032,0.353-6.052,2.042-6.052,2.042L369.552,526.04z"/>
			</g>
		</g>
	</g>
	<g>
		<g>
			<g>
				<path fill="#F7F7F7" d="M375.228,528.261l1.62-0.599c0,0-2.02-4.742-2.902-4.627c-1.016,0.134-2.284,0.468-2.284,0.468      L375.228,528.261z"/>
			</g>
		</g>
	</g>
	<g>
		<g>
			<g>
				<path fill="#DA9B5B" d="M375.598,529.081c-0.208-0.154-3.444-6.365-3.444-6.365l-6.916,0.938l3.737,7.356L375.598,529.081z"/>
			</g>
		</g>
	</g>
	<g>
		<g>
			<g>
				<path fill="#FAB9AF" d="M393.547,538.242c0,0,2.642-2.377,3.92-3.373c1.279-0.995,3.679-3.921,4.032-4.09      c0.353-0.172,4.936-9.577,5.684-9.952c0.746-0.377-0.707-1.645-2.289,0.631s-4.359,5.202-5.415,4.989      c-1.056-0.214-0.148-3.07-0.837-3.68c-0.69-0.614-0.657-0.182-0.993,0.142c-0.336,0.326,0.07,3.873-0.909,4.955      c-0.978,1.08-1.152,3.282-1.887,4.116c-0.735,0.835-4.282,4.91-4.282,4.91L393.547,538.242z"/>
			</g>
		</g>
	</g>
	<g>
		<g>
			<g>
				<path fill="#FAB9AF" d="M351.417,479.553c0,0,7.93-2.962,11.586,3.075c3.655,6.035,3.304,18.117-0.694,19.604      c-3.996,1.485-10,0.708-12.046-3.068c-2.046-3.776-3.894-9.235-3.805-12.885C346.547,482.63,349.335,480.606,351.417,479.553z"/>
			</g>
		</g>
	</g>
	<g>
		<g>
			<g>
				<path fill="#FAB9AF" d="M361.449,502.509c0,0-0.64,5.691-0.095,6.747c0.545,1.053-9.898,0-9.898,0s-0.943-8.205-2.607-13.054      C347.184,491.358,361.449,502.509,361.449,502.509z"/>
			</g>
		</g>
	</g>
	<g>
		<g>
			<g>
				<path fill="#0E538C" d="M348.849,496.203c0,0,0.384,6.109,3.432,5.63c3.047-0.477,7.128-9.408,8.4-9.853      c1.273-0.446,1.285-1.193,1.285-1.193l0.797,1.164l1.351,0.086c0,0-1.232-3.627,0.627-5.107      c1.86-1.478-1.93-11.741-11.704-8.325c0,0-7.507,2.07-7.235,6.339C346.076,489.214,347.169,494.078,348.849,496.203z"/>
			</g>
		</g>
	</g>
	<g>
		<g>
			<g>
				<path fill="#F7F7F7" d="M362.593,510.526c0,0-0.034-2.013-0.948-2.209c-0.913-0.192-10.082-1.074-11.202-0.633v2.348      C350.443,510.032,352.603,511.361,362.593,510.526z"/>
			</g>
		</g>
	</g>
	<g>
		<g>
			<g>
				<path fill="#EEA886" d="M361.764,489.235c-0.171-0.717-1.992-2.763-2.689-0.571c-0.697,2.19,1.054,5.138,2.031,4.884      C362.082,493.297,362.198,491.051,361.764,489.235z"/>
			</g>
		</g>
	</g>
	<g>
		<g>
			<g>
				<path fill="#2A94F4" d="M335.182,585.771c0,0,4.862,1.432,13.155,2.346c8.292,0.914,29.01-0.329,29.141-1.309      c0.131-0.981-4.456-36.48-4.195-38.308c0.261-1.828,0.4-8.342,0.4-8.342c0.103,1.785,1.921,9.076,4.116,13.049      c0.792,1.436,3.453,5.936,4.735,4.912c6.207-4.955,15.818-23.63,16.428-23.787c-0.513-0.223-4.555-2.084-5.123-2.272      c-0.496-0.166-4.974,4.574-7.688,7.513c-1.21,1.31-2.068,2.262-2.068,2.262c-0.784-1.763-3.638-12.868-4.524-16.711      c-2-8.668-1.693-9.028-1.693-9.028c-6.066-1.835-15.274-5.57-15.274-5.57l-12.15-0.494c0,0-11.151,2.454-15.542,4.437      c-0.417,0.189-0.418,9.949-1.561,12.507l3.641,7.682c0,0,2.103,15.216,2.539,21.983      C339.72,559.747,335.182,585.771,335.182,585.771z"/>
			</g>
		</g>
	</g>
	<g>
		<g>
			<g>
				<path fill="#2A94F4" d="M332.834,539.649c0.317,1.024,1.758,1.888,2.693,2.267c0.599,0.242,1.27,0.321,1.946,0.195l0.476-0.087      v-0.002l8.326-1.545c0,0,1.821-20.981-11.375-26.008C334.552,514.584,329.92,530.254,332.834,539.649z"/>
			</g>
		</g>
	</g>
	<g>
		<g>
			<g>
				<path fill="#0E538C" d="M349.16,480.265c0,0-9.977,1.012-0.178,16.159L349.16,480.265z"/>
			</g>
		</g>
	</g>
</g>
<path xmlns="http://www.w3.org/2000/svg" fill="#2A94F4" d="M403.716,515.114l-2.133-1.038c-0.265-0.129-0.376-0.449-0.247-0.715l0,0  c0.129-0.266,0.449-0.376,0.715-0.247l2.133,1.038c0.265,0.129,0.376,0.449,0.247,0.715l0,0  C404.301,515.133,403.981,515.244,403.716,515.114z"/>
<path xmlns="http://www.w3.org/2000/svg" fill="#2A94F4" d="M400.716,519.168l-2.133-1.038c-0.265-0.129-0.376-0.449-0.247-0.715l0,0  c0.129-0.265,0.449-0.376,0.715-0.247l2.133,1.038c0.265,0.129,0.376,0.449,0.247,0.715l0,0  C401.301,519.186,400.981,519.297,400.716,519.168z"/>
<path xmlns="http://www.w3.org/2000/svg" fill="#2A94F4" d="M399.81,520.492l-2.133-1.038c-0.265-0.129-0.376-0.449-0.247-0.715l0,0  c0.129-0.265,0.449-0.376,0.715-0.247l2.133,1.038c0.265,0.129,0.376,0.449,0.247,0.715l0,0  C400.396,520.511,400.076,520.621,399.81,520.492z"/>
<path xmlns="http://www.w3.org/2000/svg" fill="#2A94F4" d="M405.439,517.668l-2.133-1.038c-0.265-0.129-0.376-0.449-0.247-0.715l0,0  c0.129-0.265,0.449-0.376,0.715-0.247l2.133,1.038c0.265,0.129,0.376,0.449,0.247,0.715l0,0  C406.024,517.686,405.704,517.797,405.439,517.668z"/>
<path xmlns="http://www.w3.org/2000/svg" fill="#2A94F4" d="M404.434,519.024l-2.133-1.038c-0.265-0.129-0.376-0.449-0.247-0.715l0,0  c0.129-0.265,0.449-0.376,0.715-0.247l2.133,1.038c0.265,0.129,0.376,0.449,0.247,0.715l0,0  C405.019,519.043,404.699,519.153,404.434,519.024z"/>
<path xmlns="http://www.w3.org/2000/svg" fill="#2A94F4" d="M401.27,523.125l-2.133-1.038c-0.265-0.129-0.376-0.449-0.247-0.715l0,0  c0.129-0.265,0.449-0.376,0.715-0.247l2.133,1.038c0.265,0.129,0.376,0.449,0.247,0.715h0  C401.856,523.144,401.536,523.254,401.27,523.125z"/>
<path xmlns="http://www.w3.org/2000/svg" fill="#FA968C" d="M766.253,648.231c0,0-3.554,8.847-4.264,10.305c-0.587,1.204-1.745,1.97-2.845,2.734  c-0.352,0.245-0.721,0.821-1.033,1.306c-0.251,0.39-0.263,0.866-0.104,1.302c2.791,7.608,11.313,10.667,11.512,10.096  c0.36-1.03-0.904-3.104-2.69-4.141c-1.798-1.044-2.835-3.035-2.914-5.113l0,0c-0.063-1.653,0.302-3.294,1.058-4.765l3.473-6.588  L766.253,648.231z"/>
<path xmlns="http://www.w3.org/2000/svg" fill="#FA968C" d="M778.509,659.306l2.127,9.45c0.65,2.889,0.241,5.921-1.149,8.536c0,0.001-0.001,0.001-0.001,0.001  c-0.781,1.462-0.086,3.273,1.475,3.83c5.045,1.8,14.829,5.223,15.265,4.853c2.223-1.885-3.655-4.99-7.999-8.256  c-2.93-2.202-4.05-12.465-4.31-20.336l-4.66,1.173C778.894,658.66,778.61,658.943,778.509,659.306z"/>
<path xmlns="http://www.w3.org/2000/svg" fill="#0E538C" d="M787.448,680.791c2.089,0.688,4.379,0.91,6.478,1.169c0.241,0.03,0.471,0.123,0.663,0.272  c2.013,1.56,3.029,3.129,1.85,4.129c-0.474,0.402-11.968-3.669-16.451-5.278c-0.938-0.336-1.347-1.423-0.878-2.302l0.854-1.6  C782.307,678.673,784.802,679.92,787.448,680.791z"/>
<path xmlns="http://www.w3.org/2000/svg" fill="#0E538C" d="M782.475,554.111c-5.557,0.759-10.291,7.164-9.314,14.317c0.561,4.11,4.386,18.822,8.592,30.452  c1.614,4.463,0.955,9.524-2.069,13.182c-0.493,0.596-0.92,1.212-1.26,1.839c-1.754,3.229-8.504,22.307-12.467,35.037  c0.315,1.667,1.31,3.779,2.557,4.514c6.972-10.81,18.308-30.543,20.174-33.978c1.036-1.908,2.168-4.114,2.994-6.186  c4.514-5.974,3.64-39.351,2.734-45.987C793.44,560.149,788.032,553.353,782.475,554.111z"/>
<path xmlns="http://www.w3.org/2000/svg" fill="#0E538C" d="M783.988,499.45c0,0,4.813,3.029,4.228,7.11c0,0,2.571-1.821,3.152-8.091  C791.772,494.124,783.988,499.45,783.988,499.45z"/>
<g xmlns="http://www.w3.org/2000/svg">
	<path fill="#EFA8A0" d="M793.757,524.317c-0.092,2.674,0.128,5.311,1.073,7.378c0.916,2.059,2.558,3.562,4.964,4.275   c2.383,0.739,5.243,0.65,8.046,0.141c2.816-0.533,5.632-1.488,8.341-2.733l0.01-0.005c0.504-0.232,1.101-0.011,1.333,0.493   c0.206,0.447,0.055,0.967-0.334,1.241c-2.559,1.804-5.346,3.361-8.405,4.451c-3.047,1.086-6.413,1.742-10.02,1.237   c-1.794-0.249-3.636-0.894-5.271-1.976c-1.639-1.068-3.036-2.55-4.029-4.19c-1.992-3.328-2.548-6.935-2.706-10.313   c-0.091-1.933,1.403-3.573,3.336-3.664c1.933-0.091,3.573,1.403,3.664,3.336c0.004,0.093,0.005,0.186,0.002,0.278L793.757,524.317z   "/>
</g>
<path xmlns="http://www.w3.org/2000/svg" fill="#2A94F4" d="M789.376,545.463c1.926-5.804,5.8-18.093,5.469-22.11c-0.212-2.574-2.362-4.544-4.945-4.544h-16.753  c-2.778,0-5.05,2.202-5.131,4.979c-0.141,4.852,2.094,15.895,3.352,21.675H789.376z"/>
<path xmlns="http://www.w3.org/2000/svg" fill="#0E538C" d="M783.814,659.425c0.263-0.16,0.41-0.46,0.401-0.768c-0.355-12.322-1.103-28.028-1.375-31.038  c-0.031-0.344-0.072-0.684-0.122-1.017c2.64-14.566,3.039-45.88,3.302-51.364c0.345-7.211-3.998-15.346-9.6-15.614  c-5.602-0.268-11.682,5.53-13.481,12.137c-1.187,4.36,3.402,27.559,8.376,44.373c1.047,3.539,1.211,7.262,0.684,10.915  c-0.364,2.526-0.474,5.13-0.294,7.12c0.267,2.962,3.585,15.024,6.696,25.352c0.09,0.299,0.329,0.535,0.634,0.602  C780.646,660.478,782.326,660.331,783.814,659.425z"/>
<path xmlns="http://www.w3.org/2000/svg" fill="#2A94F4" d="M769.452,552.821c0.867-2.433,1.127-5.037,0.763-7.594c-0.845-5.938-2.322-17.122-2.186-21.87  c0.073-2.539,2.152-4.547,4.691-4.547h2.484c0.946,2.194,2.951,3.89,6.068,3.89c3.112,0,5.117-1.695,6.065-3.89h2.333  c-2.535,5.427-1.624,12.587,2.737,16.765c-0.81,2.864-1.492,5.747-2.002,8.084c-0.691,3.165-0.386,6.462,0.861,9.453  c2.141,5.139,3.838,13.379,3.333,16.645c-17.623,4.995-29.81-3.845-29.81-3.845L769.452,552.821z"/>
<g xmlns="http://www.w3.org/2000/svg">
	<polygon fill="#FAB9AF" points="783.988,519.963 776.389,519.164 778.793,510.848 783.709,511.456  "/>
</g>
<path xmlns="http://www.w3.org/2000/svg" fill="#FA968C" d="M783.709,511.456l-4.916-0.608l-0.751,2.596c1.1,1.241,2.515,3.921,4.303,3.921  c0.567,0,1.085-0.16,1.549-0.455L783.709,511.456z"/>
<path xmlns="http://www.w3.org/2000/svg" fill="#FAB9AF" d="M783.878,515.477c-1.669,0-3.474-0.835-5.961-3.008c-1.428-1.247-2.486-3.422-2.486-4.892v-8.127h12.512  c0,0,0.939,4.315,0.028,8.597C787.288,511.26,785.191,515.477,783.878,515.477z"/>
<path xmlns="http://www.w3.org/2000/svg" fill="#FAB9AF" d="M777.554,506.04c0,1.586-0.759,2.871-1.695,2.871c-0.936,0-1.969-2.078-1.969-3.664s1.032-2.078,1.969-2.078  C776.794,503.169,777.554,504.454,777.554,506.04z"/>
<path xmlns="http://www.w3.org/2000/svg" fill="#0E538C" d="M773.889,500.435c0-2.538,2.058-4.595,4.595-4.594l4.223,0.002c1.208,0,2.379-0.316,3.406-0.898  c1.49-0.845,3.374-0.564,4.39,0.815c1.099,1.49,1.574,3.486-1.212,5.335c-1.385,0.919-3.41-0.099-4.759,0.342  c-0.083-0.003-0.157-0.017-0.244-0.017h-3.722c-1.294,0-2.283,1.057-2.321,2.35c-0.024,0.818-0.694,1.474-1.518,1.474h-0.165  l-0.596-1.91l-2.078,2.802V500.435z"/>
<path xmlns="http://www.w3.org/2000/svg" fill="#0E538C" d="M787.011,499.308c-0.419,1.857,0.2,2.872-5.886,5.77c-6.085,2.898-8.012,1.66-9.912,4.779  c0,0,0.831-5.168,4.192-6.942c3.361-1.774,9.191-2.933,11.06-7.04C786.465,495.875,787.298,498.039,787.011,499.308z"/>
<path xmlns="http://www.w3.org/2000/svg" fill="#0E538C" d="M785.841,499.654c0,0,0.231,6.254,5.696,9.257c0,0-2.408-4.727-2.244-7.817  C789.456,498.003,785.48,497.518,785.841,499.654z"/>
<path xmlns="http://www.w3.org/2000/svg" fill="#0E538C" d="M755.995,666.048c-0.362-0.416-0.369-1.03-0.014-1.451c0.29-0.344,1.062-1.289,1.642-1.997  c0.252-0.308,0.727-0.237,0.898,0.122c1.942,4.063,5.187,7.232,9.416,7.814c1.372,0.927,2.247,3.022,1.962,3.838  c-0.067,0.191-1.944,0.218-3.918-0.912C757.219,668.446,755.995,666.048,755.995,666.048z"/>
<g xmlns="http://www.w3.org/2000/svg">
	<path fill="#FAB9AF" d="M774.777,521.596l-0.016,0.518c-0.002,0.211,0,0.423,0.007,0.643c0.006,0.435,0.031,0.878,0.071,1.319   c0.079,0.883,0.229,1.758,0.417,2.614c0.398,1.701,1.003,3.331,1.92,4.724c0.894,1.406,2.035,2.64,3.446,3.616   c1.405,0.984,3.064,1.691,4.839,2.238c1.773,0.567,3.716,0.781,5.668,0.955c1.97,0.084,3.979,0.093,6.008-0.059   c4.057-0.288,8.152-1.011,12.246-1.875l0.013-0.003c0.543-0.114,1.076,0.233,1.19,0.776c0.101,0.481-0.16,0.954-0.599,1.135   c-3.941,1.633-8.028,3-12.309,3.885c-4.269,0.909-8.779,1.274-13.43,0.495c-2.318-0.403-4.653-1.183-6.822-2.428   c-2.165-1.24-4.133-2.966-5.638-5.016c-1.509-2.055-2.519-4.386-3.199-6.744c-0.321-1.186-0.536-2.388-0.679-3.597   c-0.069-0.606-0.118-1.212-0.142-1.83c-0.013-0.306-0.013-0.62-0.01-0.935c0.006-0.337,0.01-0.597,0.046-1.058   c0.147-1.925,1.826-3.367,3.751-3.22c1.87,0.142,3.284,1.731,3.229,3.586L774.777,521.596z"/>
</g>
<path xmlns="http://www.w3.org/2000/svg" fill="#2A94F4" d="M815.586,537.286h-4.205c-0.936,0-1.695-0.759-1.695-1.695v-9.579c0-0.936,0.759-1.695,1.695-1.695h4.205  c0.936,0,1.695,0.759,1.695,1.695v9.579C817.281,536.527,816.522,537.286,815.586,537.286z"/>
<circle xmlns="http://www.w3.org/2000/svg" fill="#F7F7F7" cx="811.074" cy="526.67" r="0.628"/>
<polygon xmlns="http://www.w3.org/2000/svg" fill="#F7F7F7" points="733.502,425.591 704.906,425.591 704.906,444.315 715.332,444.315 719.8,449.676 723.791,444.315   733.502,444.315 "/>
<polygon xmlns="http://www.w3.org/2000/svg" fill="#F7F7F7" points="506.957,591.71 478.362,591.71 478.362,610.434 488.787,610.434 493.255,615.795 497.247,610.434   506.957,610.434 "/>
<g xmlns="http://www.w3.org/2000/svg">
	<path fill="#FCD434" d="M412.776,589.905c-6.257,2.607-12.625,11.439-6.198,24.032c6.426,12.594,28.955,4.676,29.894-4.596   C437.673,597.488,428.816,583.222,412.776,589.905z"/>
	<g>
		<path fill="#FDBD1A" d="M411.35,607.557c-3.853-11.476,3.652-18.444,3.679-18.469c-0.734,0.226-1.485,0.497-2.252,0.817    c-6.257,2.607-12.625,11.439-6.198,24.032c3.572,7,12.12,7.663,19.169,5.278C425.747,619.215,415.209,619.053,411.35,607.557z"/>
	</g>
	<path opacity="0.4" fill="#F7F7F7" d="M408.652,595.238c0,0,2.491-3.93,9.024-5.268c6.533-1.339,6.301,0.92,2.636,1.892   S405.605,599.749,408.652,595.238z"/>
	<path fill="#F24D54" d="M414.679,603.09c0,0,3.037-11.236-1.596-13.48c-4.633-2.243-5.732,4.05-5.732,4.05s-5.631,0.701-5.76,4.855   C401.462,602.668,414.679,603.09,414.679,603.09z"/>
	<path fill="#F24D54" d="M425.35,598.805c0,0-7.003-5.231-6.092-8.504c0.911-3.273,4.399-4.372,6.697-1.939   c3.331-2.558,7.355-0.89,6.654,2.499C431.909,594.25,425.35,598.805,425.35,598.805z"/>
	<path fill="#782D10" d="M416.414,610.363c-0.063,0.616,2.99,3.295,8.133,1.186c5.143-2.109,4.348-5.773,3.832-6.332   s-4.18,3.6-6.783,4.088S416.524,609.291,416.414,610.363z"/>
	<path fill="#F24D54" d="M423.919,611.342c0,0,1.261-3.548,3.773-3.018C426.796,610.274,424.514,611.104,423.919,611.342z"/>
</g>
<g xmlns="http://www.w3.org/2000/svg">
	<path fill="#FCD434" d="M630.102,424.591c-6.422,4.315-11.58,15.624-1.574,28.288c10.005,12.664,33.459-1.229,32.44-11.818   C659.666,427.522,646.567,413.528,630.102,424.591z"/>
	<g>
		<path fill="#FDBD1A" d="M632.445,444.67c-6.875-11.987-0.029-21.464-0.005-21.497c-0.771,0.417-1.551,0.888-2.339,1.417    c-6.422,4.315-11.58,15.624-1.574,28.288c5.562,7.039,15.279,5.873,22.638,1.629C651.165,454.508,639.332,456.679,632.445,444.67z    "/>
	</g>
	<path opacity="0.4" fill="#F7F7F7" d="M626.675,431.481c0,0,1.911-4.955,8.926-7.913c7.015-2.957,7.259-0.377,3.373,1.53   S624.271,437.212,626.675,431.481z"/>
	<path fill="#782D10" d="M633.502,447.308c0.21,2.171,7.052,7.057,14.812,3.467s9.378-13.176,6.847-15.253   C654.018,434.584,633.277,444.978,633.502,447.308z"/>
	<path fill="#F7F7F7" d="M636.167,445.542c0,0,0.675,1.618,1.714,1.407c1.039-0.211,14.117-7.407,15.119-7.846   c1.003-0.438,0.224-2.413,0.224-2.413s-3.453,0.726-9.208,4.04C638.261,444.046,636.167,445.542,636.167,445.542z"/>
	<path fill="#F45B51" d="M640.623,451.074c0,0,5.899-5.872,8.858-4.679c1.953,0.721,1.928,1.642,1.928,1.642   S646.205,452.549,640.623,451.074z"/>
	<path fill="#782D10" d="M628.664,442.043c0.873,0.074,2.895-4.537,4.905-5.088c2.01-0.551,3.846,0.3,4.619-0.265   s-3.934-3.946-6.26-2.739C629.603,435.159,627.034,441.904,628.664,442.043z"/>
	<path fill="#782D10" d="M646.291,432.075c1.091-0.153,2.036-3.189,3.072-3.562c1.036-0.374,3.205,0.486,4.168-0.186   s-3.379-3.668-5.902-2.523S644.992,432.258,646.291,432.075z"/>
</g>
<g xmlns="http://www.w3.org/2000/svg">
	<path fill="#FCD434" d="M831.263,493.573c-4.873-2.408-13.567-1.602-17.792,8.919c-4.225,10.521,12.433,19.965,18.532,15.647   C839.8,512.617,843.756,499.746,831.263,493.573z"/>
	<g>
		<path fill="#FDBD1A" d="M819.842,502.014c4.906-8.377,13.073-7.513,13.102-7.51c-0.524-0.324-1.083-0.635-1.681-0.931    c-4.873-2.408-13.567-1.602-17.792,8.919c-2.349,5.848,1.756,11.364,6.912,14.368C820.383,516.86,814.928,510.405,819.842,502.014    z"/>
	</g>
	<path opacity="0.4" fill="#F7F7F7" d="M825.866,493.891c0,0,3.688-0.565,7.94,2.678s2.765,4.293,0.245,2.59   S821.534,494.427,825.866,493.891z"/>
	<path fill="#782D10" d="M818.603,503.579c-1.25,0.886-1.839,6.763,3.059,10.239c4.898,3.477,11.306,1.115,11.689-1.153   C833.523,511.641,819.945,502.628,818.603,503.579z"/>
	<path fill="#F7F7F7" d="M820.61,504.587c0,0-0.75,0.977-0.259,1.536c0.491,0.559,9.445,6.018,10.062,6.476   c0.617,0.458,1.549-0.706,1.549-0.706s-1.648-1.851-5.678-4.202C822.254,505.34,820.61,504.587,820.61,504.587z"/>
	<path fill="#F45B51" d="M818.795,509.235c0,0,5.639,1.545,5.945,3.765c0.242,1.442-0.328,1.749-0.328,1.749   S819.845,513.152,818.795,509.235z"/>
	<path fill="#782D10" d="M820.685,500.102c-0.014,0.457,1.939,0.295,5.63,3.157c0.356,0.108,0.928-0.497,0.219-2.231   c-0.709-1.733-1.83-2.637-2.054-2.478c-0.224,0.16,0.656,1.532,0.774,2.482C822.725,499.672,820.701,499.606,820.685,500.102z"/>
	<path fill="#782D10" d="M835.255,506.094c0.216-0.434-2.629-1.206-4.344-0.242c-0.436,0.206,2.764,1.564,4.222,3.644   c0.314,0.552,0.901,0.093-0.171-1.341c-0.784-1.049-2.067-1.89-2.067-1.89S835.049,506.509,835.255,506.094z"/>
</g>
<g xmlns="http://www.w3.org/2000/svg">
	<path fill="#FCD434" d="M338.827,433.135c-6.021,2.529-12.131,11.056-5.905,23.171s27.91,4.424,28.789-4.511   C362.834,440.371,354.262,426.651,338.827,433.135z"/>
	<g>
		<path fill="#FDBD1A" d="M337.502,450.145c-3.744-11.046,3.467-17.78,3.493-17.804c-0.707,0.22-1.429,0.483-2.167,0.793    c-6.021,2.529-12.131,11.056-5.905,23.171c3.461,6.735,11.698,7.349,18.483,5.032C351.405,461.337,341.252,461.21,337.502,450.145    z"/>
	</g>
	<path opacity="0.4" fill="#F7F7F7" d="M334.868,438.284c0,0,2.389-3.793,8.68-5.101c6.291-1.308,6.073,0.868,2.545,1.816   C342.564,435.946,331.945,442.639,334.868,438.284z"/>
	
		<ellipse transform="matrix(0.9483 -0.3175 0.3175 0.9483 -123.4891 131.0055)" fill="#782D10" cx="340.238" cy="444.422" rx="1.774" ry="2.367"/>
	
		<ellipse transform="matrix(0.9698 -0.2439 0.2439 0.9698 -96.8647 99.3531)" fill="#782D10" cx="352.71" cy="440.772" rx="1.774" ry="2.366"/>
	<path fill="#782D10" d="M343.497,452.899c-0.37,0.429,3.689,2.761,7.463,1.657s5.361-6.626,4.573-6.908   c-0.788-0.282-1.693,4.732-5.103,5.654C346.567,454.348,344.31,451.957,343.497,452.899z"/>
</g>
<path xmlns="http://www.w3.org/2000/svg" fill="#0E538C" d="M358.7,671.151c0,0,7.143-0.244,8.828-1.283c0,0,5.703,1.004,7.141,2.217s1.629,3.383-2.775,3.383  S358.7,674.83,358.7,674.83S356.996,672.642,358.7,671.151z"/>
<path xmlns="http://www.w3.org/2000/svg" fill="#0E538C" d="M328.426,665.638c0,0,4.021,1.723,5.426,1.149c0,0,0.638,3.351,5.234,4.277  c4.596,0.926,3.862,3.415,1.245,3.702c-2.617,0.287-11.872-0.925-13.34-2.872C325.521,669.947,326.574,666.436,328.426,665.638z"/>
</svg>